<?xml version="1.0" standalone="no"?>
<!DOCTYPE svg PUBLIC "-//W3C//DTD SVG 20010904//EN"
 "http://www.w3.org/TR/2001/REC-SVG-20010904/DTD/svg10.dtd">
<svg version="1.0" xmlns="http://www.w3.org/2000/svg"
 width="360.000000pt" height="201.000000pt" viewBox="0 0 360.000000 201.000000"
 preserveAspectRatio="xMidYMid meet">

<g transform="translate(0.000000,201.000000) scale(0.100000,-0.100000)"
fill="#000000" stroke="none">
<path d="M395 1748 c19 -35 86 -154 147 -266 106 -190 113 -201 116 -167 2 20
-1 42 -7 49 -6 7 -64 109 -130 227 -91 163 -124 215 -140 217 -20 3 -19 -1 14
-60z"/>
<path d="M288 1637 l-67 -112 60 -112 c32 -62 59 -117 59 -123 0 -5 -43 -11
-97 -12 -138 -4 -130 -23 9 -23 l113 0 20 -37 20 -38 133 0 c72 0 132 4 132 9
0 8 -81 157 -251 463 -30 54 -56 98 -59 98 -3 -1 -35 -51 -72 -113z m144 -35
c27 -48 61 -109 76 -137 100 -177 141 -260 134 -267 -5 -5 -53 -7 -106 -6
l-98 3 -84 162 -84 161 31 54 c40 70 73 118 79 118 3 0 26 -40 52 -88z"/>
<path d="M2211 1648 c-1 -40 3 -68 9 -68 12 0 12 39 1 95 -8 37 -9 35 -10 -27z"/>
<path d="M3353 1662 c-56 -26 -111 -56 -122 -67 -44 -44 -50 -46 -73 -34 -13
6 -6 -3 15 -21 20 -17 46 -48 57 -68 l19 -37 1 32 c0 23 -5 33 -19 38 -11 3
-22 12 -25 20 -6 18 2 45 15 45 4 0 17 9 27 20 10 11 68 43 128 70 60 27 102
49 94 49 -8 0 -61 -22 -117 -47z"/>
<path d="M1178 1671 c26 -17 33 -27 30 -49 -3 -24 -7 -27 -40 -26 -21 1 -38
-3 -38 -7 0 -5 8 -9 18 -9 25 0 42 -19 42 -47 0 -18 -7 -25 -30 -29 l-30 -6
-2 -172 -3 -171 -107 -3 -108 -3 0 176 c0 107 -4 175 -10 175 -6 0 -11 -69
-12 -172 l-3 -173 -210 -1 c-280 -2 -288 -1 -308 42 l-17 34 -115 0 c-64 0
-115 -4 -115 -9 0 -13 -50 -71 -61 -71 -5 0 -18 9 -29 20 -11 11 -20 17 -20
13 0 -14 15 -30 37 -42 30 -16 89 9 105 43 11 25 14 26 103 26 l91 0 17 -35
17 -35 147 -1 c346 -1 626 2 634 7 5 3 9 17 9 31 0 24 1 25 18 10 34 -31 93
-48 156 -46 33 0 127 -1 209 -3 81 -2 151 0 155 4 5 5 29 4 53 -1 72 -16 181
14 212 60 l15 20 15 -21 c36 -52 157 -78 217 -47 20 11 27 11 35 0 11 -13 224
-21 244 -9 7 5 11 58 11 151 0 137 1 145 22 159 37 26 48 21 37 -16 -21 -75
-1 -169 49 -222 35 -37 117 -76 163 -76 52 0 122 23 163 55 l36 27 0 -30 c0
-44 21 -56 86 -48 62 7 82 16 135 57 l36 28 21 -28 c11 -15 37 -36 58 -46 51
-24 150 -16 193 15 34 23 61 68 61 97 -1 11 -6 6 -14 -13 -44 -99 -182 -132
-259 -60 -24 22 -47 80 -47 118 0 20 -16 32 -24 19 -4 -5 -2 -12 4 -16 22 -14
8 -50 -35 -91 -46 -45 -94 -64 -157 -64 -36 0 -38 1 -38 34 0 33 1 34 52 40
43 6 59 14 90 47 21 22 38 43 38 47 0 5 -47 8 -105 8 -98 -1 -120 -6 -95 -21
22 -13 8 -50 -33 -89 -72 -69 -163 -84 -254 -41 -93 43 -144 159 -111 252 8
23 13 45 10 48 -13 13 -55 3 -77 -20 -24 -23 -25 -28 -25 -170 l0 -146 -107 3
-108 3 -3 28 -3 27 -26 -20 c-40 -31 -96 -43 -145 -29 -90 23 -108 61 -108
219 0 126 -5 137 -42 103 -17 -15 -21 -15 -62 5 -64 32 -66 27 -9 -30 28 -29
63 -71 77 -92 69 -104 -9 -209 -155 -209 -106 0 -198 70 -144 110 15 10 25 8
61 -13 63 -37 70 -26 18 31 -78 85 -96 117 -92 166 4 63 -30 101 -112 123 -14
4 -6 -3 17 -15 65 -32 70 -46 75 -206 3 -130 5 -144 26 -166 12 -13 22 -26 22
-30 0 -4 -58 -7 -130 -6 -71 0 -130 4 -130 9 0 4 -35 6 -77 3 -89 -5 -128 11
-163 69 -43 70 -20 154 54 199 20 12 25 19 14 19 -21 0 -48 26 -48 46 0 8 11
26 25 39 18 16 22 25 13 28 -10 4 -11 7 0 18 6 7 12 25 12 41 0 29 -24 50 -70
63 -21 5 -20 3 8 -14z m22 -230 c-1 -11 -30 -44 -35 -40 -2 3 -2 22 2 44 6 35
7 36 20 20 7 -11 13 -21 13 -24z m775 -17 c9 -48 3 -51 -30 -12 -25 30 -26 33
-9 39 30 12 31 11 39 -27z m-268 -129 c-1 -1 -14 -5 -29 -9 -27 -6 -28 -5 -28
31 l0 37 30 -29 c16 -16 29 -29 27 -30z m1423 5 c-15 -28 -69 -60 -102 -60
-25 0 -27 3 -25 39 l1 38 69 2 c67 2 68 2 57 -19z"/>
<path d="M884 1654 c3 -9 6 -29 6 -45 0 -19 5 -29 15 -29 8 0 15 5 15 12 0 7
12 26 28 42 l27 31 -27 -24 c-27 -24 -28 -24 -28 -4 0 12 -7 24 -16 27 -24 9
-27 8 -20 -10z"/>
<path d="M1040 1658 c-51 -15 -90 -46 -97 -79 -4 -22 -11 -29 -29 -29 -30 0
-31 -18 -1 -22 22 -3 22 -5 25 -175 l2 -173 85 0 85 0 0 175 0 175 30 0 c17 0
30 5 30 10 0 6 -13 10 -30 10 -28 0 -29 1 -32 57 -3 64 -9 68 -68 51z m60
-243 l1 -225 -66 0 -65 0 0 180 c0 203 7 231 63 255 68 30 66 39 67 -210z"/>
<path d="M1135 1651 c-9 -15 37 -43 50 -30 7 7 4 15 -9 25 -23 16 -33 18 -41
5z"/>
<path d="M2088 1623 c-56 -26 -78 -41 -78 -54 0 -12 -7 -19 -19 -19 -11 0 -23
-4 -26 -10 -3 -6 4 -10 18 -10 24 0 24 0 29 -138 3 -91 10 -145 19 -159 20
-32 69 -55 109 -51 l35 3 5 170 5 170 33 3 c17 2 32 7 32 12 0 5 -15 10 -32
12 -32 3 -33 4 -36 56 -2 28 -6 52 -10 52 -4 -1 -42 -17 -84 -37z m84 -40 c2
-27 2 -126 0 -222 l-3 -174 -42 6 c-30 4 -50 15 -69 37 -28 30 -28 30 -28 186
l0 155 63 29 c34 16 65 29 69 29 4 1 8 -20 10 -46z"/>
<path d="M3353 1624 c-54 -26 -73 -40 -73 -54 0 -15 -7 -20 -25 -20 -14 0 -25
-4 -25 -10 0 -5 11 -10 25 -10 l25 0 0 -129 c0 -71 4 -141 10 -155 13 -36 67
-66 118 -66 l42 0 0 175 0 175 35 0 c19 0 35 5 35 10 0 6 -16 10 -35 10 l-35
0 0 55 c0 38 -4 55 -12 54 -7 0 -46 -16 -85 -35z m67 -36 c1 -24 3 -95 5 -158
3 -63 2 -143 -1 -177 -6 -58 -8 -63 -31 -63 -37 0 -79 26 -92 57 -7 19 -11 81
-9 178 l3 150 55 27 c30 15 58 27 63 27 4 1 7 -18 7 -41z"/>
<path d="M697 1633 c-4 -3 -7 -107 -7 -230 l0 -223 85 0 85 0 0 230 0 230 -78
0 c-43 0 -82 -3 -85 -7z m153 -233 l0 -210 -60 0 -60 0 0 210 0 210 60 0 60 0
0 -210z"/>
<path d="M3482 1610 c0 -19 2 -27 5 -17 2 9 2 25 0 35 -3 9 -5 1 -5 -18z"/>
<path d="M1980 1600 c-7 -14 -7 -20 0 -20 5 0 10 6 10 14 0 8 6 17 13 19 9 4
9 6 0 6 -7 1 -17 -8 -23 -19z"/>
<path d="M2996 1588 c-20 -64 -11 -98 26 -98 14 0 18 -8 18 -35 0 -46 -25 -47
-40 -1 -10 31 -89 116 -107 116 -3 0 12 -16 34 -35 23 -19 49 -55 59 -80 16
-38 23 -45 47 -45 26 0 27 2 27 55 0 55 0 55 -31 55 -31 0 -32 1 -26 40 5 38
1 54 -7 28z"/>
<path d="M1902 1568 c16 -10 45 -10 51 0 3 4 -10 7 -29 8 -21 0 -30 -3 -22 -8z"/>
<path d="M2490 1565 c0 -9 6 -12 15 -9 8 4 15 7 15 9 0 2 -7 5 -15 9 -9 3 -15
0 -15 -9z"/>
<path d="M2632 1564 c14 -15 21 -15 48 -4 17 7 29 15 26 17 -2 3 -14 -1 -26
-7 -16 -9 -25 -9 -33 -1 -6 6 -16 11 -21 11 -6 0 -3 -7 6 -16z"/>
<path d="M1682 1543 c-24 -24 -24 -25 -2 -8 42 33 44 35 37 35 -4 0 -19 -12
-35 -27z"/>
<path d="M1287 1546 c-45 -16 -67 -34 -67 -52 0 -21 17 -17 56 13 25 18 48 26
79 27 29 1 45 6 45 14 0 16 -64 15 -113 -2z"/>
<path d="M1430 1370 l0 -190 89 0 89 0 -4 88 c-10 217 -11 222 -29 242 -17 18
-100 50 -132 50 -10 0 -13 -39 -13 -190z m117 142 c33 -18 43 -65 43 -198 l0
-124 -65 0 -65 0 0 174 0 174 33 -7 c18 -5 42 -13 54 -19z"/>
<path d="M1745 1546 c-40 -18 -73 -51 -81 -80 -9 -37 18 -85 89 -164 45 -49
67 -80 67 -97 0 -16 6 -25 15 -25 27 0 6 51 -44 108 -102 118 -116 146 -91
193 9 16 58 49 73 49 3 0 7 -11 11 -23 3 -13 29 -47 57 -75 107 -107 125 -159
72 -209 -23 -21 -24 -24 -6 -14 29 15 43 42 43 81 0 44 -13 66 -86 140 -42 43
-64 75 -67 94 -4 36 -13 39 -52 22z"/>
<path d="M1822 1550 c3 -10 61 -37 93 -43 22 -4 16 19 -8 31 -40 20 -90 27
-85 12z"/>
<path d="M2534 1541 c-18 -11 -35 -25 -39 -31 -12 -19 3 -23 26 -6 16 11 34
14 60 10 43 -7 62 11 34 33 -25 18 -44 16 -81 -6z m71 -11 c3 -5 -1 -10 -9
-10 -8 0 -18 5 -21 10 -3 6 1 10 9 10 8 0 18 -4 21 -10z"/>
<path d="M2705 1543 c-46 -24 -66 -45 -86 -88 -33 -72 -18 -158 38 -217 25
-26 79 -55 88 -46 8 8 7 362 -2 365 -4 1 -21 -5 -38 -14z m35 -178 c0 -182 2
-178 -63 -131 -29 21 -67 90 -67 122 0 45 25 101 60 136 67 67 70 61 70 -127z"/>
<path d="M2780 1550 c0 -5 8 -10 19 -10 32 0 42 -24 39 -92 -3 -60 -4 -63 -30
-66 -49 -6 -30 -22 25 -21 28 1 44 3 35 6 -15 4 -18 17 -18 85 l0 80 22 -14
c61 -41 108 -141 71 -151 -11 -3 -7 -5 11 -6 28 -1 28 0 22 39 -8 54 -42 103
-90 134 -40 26 -106 36 -106 16z"/>
<path d="M3030 1550 c0 -5 11 -10 25 -10 30 0 37 -23 33 -101 -3 -51 -5 -54
-30 -57 -47 -5 -31 -22 20 -21 26 0 41 3 35 6 -9 3 -13 30 -13 85 l0 79 29
-20 c43 -31 74 -86 69 -121 -4 -24 -1 -30 14 -30 48 0 -7 129 -74 173 -41 27
-108 37 -108 17z"/>
<path d="M2300 1365 l0 -185 85 0 85 0 0 185 0 185 -85 0 -85 0 0 -185z m150
-5 l0 -171 -67 3 -68 3 -3 135 c-2 74 0 150 3 168 l6 32 64 0 65 0 0 -170z"/>
<path d="M3536 1515 c-3 -8 -17 -15 -31 -15 l-25 0 0 -107 0 -106 21 19 c18
16 19 19 5 22 -13 3 -16 17 -16 77 0 69 1 73 25 79 24 6 55 46 36 46 -5 0 -11
-7 -15 -15z"/>
<path d="M2780 1465 c0 -42 3 -55 15 -55 12 0 15 13 15 55 0 42 -3 55 -15 55
-12 0 -15 -13 -15 -55z"/>
<path d="M1290 1483 l-31 -28 70 0 c64 0 70 2 74 22 5 30 1 33 -45 33 -27 0
-46 -8 -68 -27z m100 -3 c0 -5 -14 -10 -31 -10 -17 0 -28 4 -24 10 3 6 17 10
31 10 13 0 24 -4 24 -10z"/>
<path d="M2238 1502 l-28 -3 0 -110 c0 -107 0 -109 19 -90 10 10 24 20 30 22
8 3 11 32 9 94 l-3 90 -27 -3z m16 -44 c12 -46 7 -126 -9 -132 -13 -4 -15 8
-15 74 0 77 11 104 24 58z"/>
<path d="M132 1345 c-78 -130 -93 -165 -73 -165 7 0 115 176 167 270 1 3 -1
12 -5 18 -5 9 -37 -35 -89 -123z"/>
<path d="M1239 1410 c-92 -49 -85 -175 12 -214 46 -19 75 -20 118 -5 41 14 42
37 1 31 l-30 -4 0 91 0 91 31 0 c20 0 29 4 27 13 -8 21 -117 20 -159 -3z m95
-107 c-1 -64 -6 -109 -12 -111 -22 -7 -83 28 -102 60 -41 66 13 155 95 157 19
1 20 -5 19 -106z"/>
<path d="M225 1395 c-8 -14 -22 -36 -30 -50 -8 -13 -15 -27 -15 -30 0 -3 27
-5 60 -5 33 0 60 2 60 5 0 10 -50 105 -55 105 -2 0 -11 -11 -20 -25z m49 -51
c9 -23 8 -24 -19 -24 -23 0 -24 2 -13 20 15 24 24 25 32 4z"/>
<path d="M1366 1373 c-3 -4 -6 -33 -6 -65 0 -51 2 -59 18 -56 23 4 31 112 8
121 -8 3 -17 3 -20 0z"/>
<path d="M2787 1334 c-4 -4 -7 -29 -7 -56 0 -54 7 -58 64 -34 37 16 90 77 75
87 -15 9 -124 11 -132 3z m83 -48 c-44 -43 -74 -50 -78 -18 -6 43 4 52 60 52
l53 0 -35 -34z"/>
<path d="M2908 1260 c-26 -27 -49 -41 -79 -47 -23 -5 -44 -14 -47 -21 -3 -10
5 -12 34 -6 72 13 131 52 147 97 11 29 -16 19 -55 -23z"/>
<path d="M3174 1274 c-19 -28 -63 -54 -108 -63 -16 -4 -31 -12 -34 -19 -6 -20
64 -5 115 25 47 26 86 83 58 83 -8 0 -22 -11 -31 -26z"/>
<path d="M2233 1257 c-13 -18 -23 -40 -23 -48 1 -19 60 47 60 66 0 24 -13 17
-37 -18z"/>
<path d="M3498 1258 c-43 -56 -34 -82 11 -34 13 14 21 33 19 47 -3 21 -5 20
-30 -13z"/>
<path d="M1666 1241 c-16 -26 105 -74 128 -51 7 7 5 10 -5 10 -9 0 -38 11 -65
25 -57 29 -51 27 -58 16z"/>
<path d="M1668 951 c-30 -27 -33 -33 -33 -94 0 -57 4 -71 32 -111 l32 -45 -35
-30 c-19 -17 -34 -33 -34 -36 0 -15 30 -1 70 34 l44 38 -26 31 c-62 74 -72
163 -23 216 33 35 13 33 -27 -3z"/>
<path d="M1735 961 c-30 -13 -44 -33 -50 -72 l-5 -34 11 30 c17 44 28 55 58
55 69 0 135 -79 146 -174 4 -33 11 -70 15 -81 20 -53 90 -31 90 28 0 63 49 97
94 64 17 -13 17 -16 -12 -73 -16 -32 -35 -75 -41 -94 -13 -40 -38 -73 -62 -82
-20 -8 -33 -77 -17 -95 13 -17 15 -15 -55 -37 -64 -19 -67 -36 -6 -36 56 0 89
34 89 93 0 46 21 89 34 69 11 -18 26 -14 19 3 -3 9 1 23 9 33 8 9 23 40 33 67
10 28 33 74 51 102 l34 53 -30 15 c-72 37 -139 8 -149 -66 -8 -62 -35 -65 -50
-5 -6 25 -11 57 -11 72 0 95 -121 197 -195 165z"/>
<path d="M1396 853 c-8 -16 -44 -62 -80 -103 -85 -98 -117 -157 -123 -228 -3
-45 0 -64 16 -89 28 -45 74 -66 128 -60 37 4 43 2 43 -15 0 -27 -24 -81 -43
-97 -21 -17 -22 -47 -1 -55 26 -10 192 -7 199 4 4 6 -28 10 -89 10 -94 0 -110
6 -82 30 17 14 42 79 51 133 l6 38 -30 -15 c-51 -27 -98 -21 -137 18 -34 34
-40 55 -35 121 4 44 44 111 117 195 79 92 110 140 89 140 -8 0 -21 -12 -29
-27z"/>
<path d="M2230 837 c-55 -20 -75 -33 -59 -39 8 -2 37 8 64 24 53 29 52 35 -5
15z"/>
<path d="M1370 753 c-40 -47 -85 -106 -100 -132 -30 -50 -46 -101 -31 -101 5
0 12 15 15 34 7 35 59 112 134 196 l40 45 43 -49 c24 -27 59 -68 76 -90 30
-37 31 -42 16 -53 -9 -7 -33 -16 -52 -19 -63 -11 -64 -20 -15 -86 47 -65 51
-74 32 -81 -7 -3 2 -6 20 -6 20 -1 32 4 32 12 0 17 -51 98 -73 116 -25 20 -21
29 16 36 17 4 47 13 65 21 40 16 37 24 -46 122 -32 37 -67 79 -78 94 l-21 27
-73 -86z"/>
<path d="M1770 790 c-17 -22 -29 -44 -25 -50 9 -15 20 -6 54 45 39 58 16 61
-29 5z"/>
<path d="M1978 812 c-29 -17 -37 -53 -19 -80 6 -10 10 -4 14 17 4 18 19 43 33
56 31 29 13 33 -28 7z"/>
<path d="M2254 811 c-51 -23 -56 -31 -37 -56 15 -20 15 -20 8 2 -5 19 -1 25
20 33 43 16 80 12 103 -13 26 -28 28 -64 5 -112 -23 -48 -9 -61 64 -58 64 3
88 -11 98 -57 7 -33 -11 -74 -47 -106 -54 -50 -181 -91 -197 -65 -6 9 -11 8
-21 -4 -11 -13 -6 -15 38 -15 64 0 163 31 207 65 69 52 87 140 39 186 -21 20
-36 24 -82 24 -31 0 -59 2 -61 5 -3 3 4 26 14 52 15 41 16 52 5 79 -9 20 -26
37 -46 45 -43 18 -61 17 -110 -5z"/>
<path d="M1789 739 c-9 -17 -8 -23 2 -30 22 -14 29 -10 29 15 0 34 -16 41 -31
15z"/>
<path d="M2161 731 c-50 -70 -88 -181 -61 -181 5 0 7 7 4 15 -3 8 8 45 26 82
28 62 33 66 45 50 37 -51 23 -126 -28 -147 -21 -8 -21 -9 4 -9 68 -2 105 75
75 154 -25 64 -39 72 -65 36z"/>
<path d="M1565 720 c10 -11 20 -20 23 -20 3 0 -3 9 -13 20 -10 11 -20 20 -23
20 -3 0 3 -9 13 -20z"/>
<path d="M2423 680 c-10 -28 -10 -30 10 -29 12 0 16 3 10 6 -8 3 -11 14 -7 29
9 34 1 30 -13 -6z"/>
<path d="M1702 651 c-47 -43 -51 -50 -42 -72 9 -21 10 -22 7 -3 -2 24 78 98
95 88 5 -3 -4 -14 -21 -25 -40 -24 -51 -48 -51 -109 0 -49 26 -120 50 -135 20
-12 9 -32 -45 -75 -42 -35 -54 -51 -55 -73 0 -27 5 -24 78 50 l77 78 -31 47
c-60 89 -52 180 20 215 39 18 47 38 19 46 -10 2 -25 7 -33 10 -9 4 -35 -12
-68 -42z"/>
<path d="M1775 608 c-17 -16 -27 -36 -30 -63 l-5 -40 11 35 c10 33 35 69 41
59 2 -2 22 -41 45 -87 l42 -83 -32 -14 c-28 -12 -35 -11 -52 3 -15 12 -15 11
2 -8 l23 -24 52 18 c29 11 54 20 56 22 2 1 -12 26 -32 55 -20 30 -43 75 -52
101 -17 54 -31 58 -69 26z"/>
<path d="M1878 621 c-17 -4 -25 -10 -20 -17 8 -14 52 0 52 16 0 5 -1 9 -2 9
-2 -1 -15 -4 -30 -8z"/>
<path d="M2246 583 c-4 -12 -21 -32 -37 -44 -26 -18 -38 -20 -87 -14 l-57 7
35 -37 c19 -20 44 -41 55 -46 11 -6 4 3 -15 20 l-35 30 28 1 c62 0 137 56 125
92 -3 8 -8 4 -12 -9z"/>
<path d="M1573 572 c-24 -9 -43 -19 -43 -23 0 -4 9 -17 21 -30 l20 -24 -11 23
c-14 28 -12 31 21 34 22 3 24 0 24 -42 0 -31 -4 -44 -13 -42 -10 2 -10 -2 -2
-18 15 -29 32 -21 49 24 15 39 6 107 -14 111 -5 2 -29 -5 -52 -13z"/>
<path d="M1666 496 c-4 -18 -15 -45 -26 -59 -11 -14 -19 -36 -19 -49 1 -20 2
-21 6 -3 3 11 14 31 24 43 18 24 36 88 26 98 -2 3 -8 -11 -11 -30z"/>
<path d="M2576 504 c-12 -48 -56 -93 -122 -125 -53 -26 -80 -33 -162 -38 -94
-7 -102 -9 -149 -44 -28 -20 -54 -37 -58 -37 -4 0 -4 16 -1 35 8 39 7 39 -61
26 -24 -5 -43 -7 -43 -4 0 2 11 30 25 63 26 62 32 105 15 115 -6 4 -10 -10
-10 -35 0 -47 -21 -95 -49 -110 -25 -13 -87 -13 -112 1 -15 8 -27 6 -54 -11
-38 -23 -116 -106 -142 -151 -10 -16 -21 -29 -25 -29 -4 0 -8 29 -8 64 0 36
-5 87 -12 115 l-11 51 -41 0 c-23 0 -52 7 -64 16 -28 19 -30 17 -21 -21 4 -16
7 -25 8 -19 1 6 17 8 43 5 49 -7 56 -21 66 -146 6 -70 9 -80 28 -83 15 -2 30
11 58 52 21 30 57 73 81 95 l44 40 68 -6 c37 -3 74 -12 81 -20 8 -8 23 -11 33
-8 10 3 28 8 39 11 17 4 20 1 20 -24 0 -49 34 -49 102 -2 49 34 65 40 110 40
61 0 165 23 211 46 48 24 105 83 118 122 6 18 9 35 6 38 -2 3 -8 -7 -11 -22z"/>
<path d="M1240 483 c0 -7 10 -22 23 -35 12 -13 17 -17 11 -8 -6 8 -16 24 -22
35 -6 11 -12 15 -12 8z"/>
<path d="M2060 478 c1 -18 39 -86 40 -71 0 8 9 7 30 -5 34 -20 34 -34 -1 -43
-21 -6 -20 -7 9 -8 18 -1 47 6 64 15 l32 17 -40 20 c-21 10 -58 35 -81 53 -45
37 -53 40 -53 22z"/>
<path d="M1360 435 c-30 -22 -31 -25 -13 -25 12 0 35 11 50 25 37 32 10 32
-37 0z"/>
<path d="M1435 450 c-3 -5 -1 -10 4 -10 6 0 11 5 11 10 0 6 -2 10 -4 10 -3 0
-8 -4 -11 -10z"/>
<path d="M1480 436 c0 -2 7 -7 16 -10 8 -3 12 -2 9 4 -6 10 -25 14 -25 6z"/>
<path d="M2031 389 c-7 -23 -11 -42 -9 -44 8 -9 58 9 58 21 0 18 -22 64 -30
64 -4 0 -12 -18 -19 -41z"/>
<path d="M2238 413 c6 -2 18 -2 25 0 6 3 1 5 -13 5 -14 0 -19 -2 -12 -5z"/>
<path d="M1435 375 c-21 -89 -26 -105 -35 -110 -23 -14 -6 -25 40 -25 54 0 56
1 38 33 -7 12 -17 47 -24 77 -11 52 -12 53 -19 25z m8 -105 c4 -15 0 -20 -14
-20 -17 0 -18 3 -9 20 6 11 12 20 14 20 2 0 6 -9 9 -20z"/>
<path d="M2110 314 c0 -14 3 -14 15 -4 8 7 15 14 15 16 0 2 -7 4 -15 4 -8 0
-15 -7 -15 -16z"/>
<path d="M1517 249 c7 -7 15 -10 18 -7 3 3 -2 9 -12 12 -14 6 -15 5 -6 -5z"/>
</g>
</svg>
