<?xml version="1.0" encoding="UTF-8"?>
<!DOCTYPE svg PUBLIC "-//W3C//DTD SVG 1.1//EN" "http://www.w3.org/Graphics/SVG/1.1/DTD/svg11.dtd">
<!-- Creator: CorelDRAW 2019 (64-Bit) -->
<svg xmlns="http://www.w3.org/2000/svg" xml:space="preserve" width="254.169mm" height="42.3332mm" version="1.1" style="shape-rendering:geometricPrecision; text-rendering:geometricPrecision; image-rendering:optimizeQuality; fill-rule:evenodd; clip-rule:evenodd"
viewBox="0 0 25416.92 4233.32"
 xmlns:xlink="http://www.w3.org/1999/xlink">
 <defs>
  <style type="text/css">
   <![CDATA[
    .fil12 {fill:#DEB363}
    .fil3 {fill:#E0B565}
    .fil0 {fill:#E1BB6C}
    .fil1 {fill:#E1BD66}
    .fil9 {fill:#E2BA68}
    .fil11 {fill:#E2BE6A}
    .fil4 {fill:#E4C06B}
    .fil2 {fill:#E4C371}
    .fil6 {fill:#E6C56E}
    .fil14 {fill:#E8C971}
    .fil5 {fill:#E9CC74}
    .fil7 {fill:#EAD178}
    .fil10 {fill:#EAD685}
    .fil8 {fill:#ECD57B}
    .fil13 {fill:#F8E99D}
   ]]>
  </style>
 </defs>
 <g id="Capa_x0020_1">
  <metadata id="CorelCorpID_0Corel-Layer"/>
  <g id="_1766866648192">
   <path class="fil0" d="M22102.92 2910.59c0,-53.58 -3,-92.17 -9.24,-143.25 -4.57,-37.28 -19.81,-93.42 -19.81,-132.71l192.77 -32.36c72.28,-10.82 141.66,-11.23 221.19,-11.23l-93.34 80.97c-33.07,26.72 -63.24,53.77 -95.48,78.82 -32.2,25.03 -62.47,52.18 -95.43,78.86 -35.63,28.85 -62.28,55.22 -100.66,80.9zm2040.77 -907.28l0 84.36c-13.73,172.21 -111.26,328.69 -271.07,413.88 -285.65,152.25 -574.9,120.27 -876.38,103.99l-282.91 -7.63c-78.43,-6.91 -46.86,-22.21 -101.06,23.16l-625.54 521.93c0,-188.69 41.17,-240.22 -14.54,-479.33 -87.71,20.44 -98.67,36.6 -181.55,-7.25 17.73,-33.5 17.7,-57.87 41.32,-89.42 65.09,-86.89 82.63,-103.36 59.61,-156.55 -10.22,-23.57 -23.54,-66.72 -42.84,-80.85 -5.75,69.13 -64.57,188.11 -97.26,236.82 -123.13,183.33 -318.18,319.02 -550.68,258.62 -72.36,-18.8 -93.45,-38.54 -121.87,-45.16l-234.28 179.69c-17.93,15.97 -26.31,19.45 -43.61,36.28 -27.31,26.61 -65.36,50.65 -78.03,74.53l0 -130.73c0.45,-17.89 41.64,-46.7 57.07,-59.17 53.14,-42.9 160.66,-131.7 211.68,-158.71 -8.79,-11.99 -40.68,-36.91 -56.3,-52.62 -65.6,-66.13 -84.52,-91.2 -130.18,-182.1 -104.95,-208.86 -28.06,-467.09 106.45,-644.2 85.29,-112.29 204.39,-177.32 218.04,-195.92 -59.17,-1.32 -185.15,-72.38 -226.63,-100.2 -44.48,-29.82 -142.87,-103.87 -165.59,-146.73 -7.13,-37.62 -9.18,-21.7 -31.69,-54.33 -2.01,-2.92 -12.9,-19.94 -14.46,-21.6 -18.23,-19.63 -1.12,-8.14 -26.44,-18.44 -11.14,-21.29 -28.3,-43.52 -41.29,-67.71 -13.4,-24.93 -24.24,-53.31 -34.23,-81.96 -67.33,-193.14 -23.51,-379.22 89.94,-525.89 97.84,-126.53 241.48,-244.33 403.77,-286.17 87.4,-22.54 113.78,-11.7 191.86,-11.45 -18.39,15.37 -4.4,-1.83 -11.61,21.25 -3.15,10.05 -3.67,18.74 -3.96,29.42 -0.41,14.99 1.08,34.99 1.08,50.97 -124.14,0 -192.19,1.86 -297.89,72.54 -211.25,141.25 -357.76,337.41 -280.28,607.28 14.23,49.62 45.13,82.94 55.24,126.31 33.93,-2.83 43.96,-25.68 63.55,-45.38 17.66,-17.76 32.5,-34.6 50.88,-50.78 86.75,-76.4 255.27,-250.38 357.62,-274.21 5.8,69.6 37.56,45.8 36.34,174.26 -0.79,84.38 21.5,295.84 34.15,372.56l31.18 172.15c47.51,0 74.9,13.6 116.2,14.54 -14.92,20.38 -65.72,44.16 -94.41,50.84 1.44,64.44 84.46,279.53 111,346.53 46.35,116.99 180.21,352.5 187.29,379.28 36.71,138.57 -107.56,132.99 -305.21,247.68 -28.08,16.28 -123.22,66.23 -138.33,86.82 85.68,41.11 208.25,22.23 280.98,-16.77 293.48,-157.45 283.51,-453.7 336.34,-680.42 6.45,7.41 0.42,-1.34 9.25,12.52l75.47 142.41c17.69,35.35 72.18,130.18 75.06,164.62 31.06,-22.78 108.44,-233.97 117.9,-270.42l-168.74 -172.6c65.79,5.47 149.92,29.06 217.88,29.06 0.79,-36.12 23.61,-94.65 33.37,-133.68l106.35 -381.96c0,63.55 -14.15,326.31 5.52,361.07 -8.89,21.5 -15.24,55.96 -22.63,81.09 -6.42,21.81 -15.6,50.52 -20.94,73.48 74.86,-17.46 74.31,-7.13 161.96,-41.4 505.65,-197.73 328.46,-770.7 95.99,-866.41 10.01,-37.97 31.66,-69.95 54.33,-91.18 208.35,113.69 337.24,424.37 249.77,689.55 -41.31,125.31 -119.62,214.65 -216.51,284.59 -84.26,60.85 -233.53,126.53 -374.59,126.53 7.11,26.66 19.37,30.74 40.38,46.75 52.81,40.29 90.09,72.96 153.41,108.04 457.39,253.46 675.14,61.64 458.81,236.35l-93.39 80.9c248.57,0 518.44,42.82 756.61,8.59 107.83,-15.49 223.01,-45.58 300.69,-91.5 265.1,-156.7 280.51,-455.14 120.32,-658.94 -97.95,-124.6 -213.47,-185.45 -393.23,-195.03 -253.37,-13.52 -189.31,62.23 -276.03,-101.64 65.06,0 46.74,9.34 75.17,-55.57 68.17,-155.62 61.74,-303.53 -12.1,-450.5 -84.04,-167.22 -226.2,-256.49 -426.23,-256.49l0 -101.68c177.47,0 292.43,51.51 408.67,157.86 14.11,12.93 29.94,35.83 42.65,51.75 248.43,310.63 83.02,604.99 78.9,654.63 225.26,0 332.58,18.94 463.85,117.15 103.44,77.39 193.22,198.83 227.77,345.94 6.46,27.39 10.68,54.84 12.84,82.11zm-2098.87 536.89c-32.27,-138.52 -37.26,-19.65 52.94,-230.29 14.93,-34.86 60.45,-135.32 63.27,-169.13 21.93,5.85 36.85,24.08 55.95,38.46 117.96,88.68 357.24,222.98 488.74,222.98l0 14.54c-54.51,14.54 -52.67,71.81 -122.87,73.21 -64.91,1.3 -131.79,-1.68 -196.98,-0.89 -69.54,0.87 -299.09,31 -341.05,51.12zm-1183.78 -232.38c0,-159.38 30.09,-274.95 126.43,-396.46 69.17,-87.25 151.28,-153.45 251.21,-206.32 2.05,24.56 17.85,72.01 26.23,97.23 68.77,206.77 116.11,326.9 222.93,517.83 51.87,92.72 61.82,92.2 -8.43,119.52 -63.51,24.69 -122.91,60.26 -175.31,86.11 -95.29,47 -157.43,94.84 -225.18,130.69 -102.09,-68.36 -217.88,-214.85 -217.88,-348.6zm-50.84 -980.44l334.07 -305.03c0,266.27 56.65,479.09 58.11,544.69 -15.37,-7.37 -35.13,-10.6 -55.45,-17.18 -122.99,-39.81 -265.56,-116.19 -336.73,-222.48z"/>
   <path class="fil1" d="M14143.22 3164.79l72.62 0 0 7.27 -72.62 0 0 -7.27zm130.73 -7.27l0 0zm50.84 -7.25c8.41,-8.43 41.4,12.28 9.06,2.95 -0.88,-0.25 -21.67,9.66 -9.06,-2.95zm36.3 -7.27c7.72,-7.71 27.55,11.54 8.1,3.78 -0.18,-0.08 -20.26,8.38 -8.1,-3.78zm29.05 -7.26c8.43,-8.41 41.4,12.28 9.08,2.96 -0.87,-0.26 -21.68,9.64 -9.08,-2.96zm29.06 -7.27c7.71,-7.72 27.55,11.53 8.08,3.77 -0.16,-0.06 -20.24,8.41 -8.08,-3.77zm43.57 -7.25c-9.75,7.37 15.27,7.25 -21.79,7.25 8.88,-6.7 -8.16,-4.7 21.79,-7.25zm0 0c14.98,-13.02 10.92,-12.43 36.3,-14.54 -14.96,13.01 -10.92,12.43 -36.3,14.54zm36.3 -14.54l70.23 -38.72c267.55,-132.56 361.74,-341.05 423.62,-382.49 12.71,18.97 15.01,14.76 9.08,37.22 -3.01,11.35 -12.47,29.54 -18.5,40.48 -75.28,136.62 -373.25,334.27 -484.43,343.51zm-428.47 -929.6c0,-91.99 -16.06,-566.47 23.34,-615.75 39.17,-48.97 186.98,-42.43 244.43,-15.14 33.87,16.08 44.51,42.63 44.51,93.47l0 537.42c0,16.73 -5.06,21.79 -21.79,21.79l-268.71 0c-16.73,0 -21.78,-5.06 -21.78,-21.79zm1227.36 -726.24c71.24,1.59 217.46,78.45 267.33,110.33 266.07,170.08 372.19,395.34 400.82,739.38l-711.72 -7.25c182.66,0 145.24,84.62 145.24,-399.45 0,-96.56 -7.73,-170.66 -7.08,-261.62 0.95,-135.04 -67.71,-144.72 -94.59,-181.39zm-915.08 0c116.21,2.58 332.44,143.32 423.29,230.34 139.37,133.45 244.86,367.12 244.86,619.37l-566.48 -7.25 0 -653.64c0,-85.15 -23.14,-131.6 -81.23,-172.96 -1.24,-0.89 -3.06,-2.07 -4.28,-2.97l-16.16 -12.89zm915.08 0l-15.61 -4 15.61 4zm-929.6 -7.27l2.17 2.18c-0.14,-0.15 -2.9,-1.44 -2.17,-2.18zm-399.44 246.93l0 602.8c88.05,0 84.95,-8.3 101.68,14.52l-101.68 0 0 624.58c0,219.86 130.69,209.32 167.03,232.39 -227.23,0 -426.65,-110.84 -571.92,-256 -419.91,-419.65 -283.98,-1133.81 232.9,-1390.28 78.13,-38.73 219.98,-89.45 331.77,-89.45 -1.54,0.97 -4.2,0.1 -4.99,2.27 -2.97,8.04 -82.21,15.71 -121.11,82.23 -24.77,42.35 -33.68,113.31 -33.68,176.94zm-755.3 588.26c0,785.41 811.86,1265.47 1542.83,823.84 112.77,-68.14 351.29,-248.06 351.04,-395.46 -0.18,-105.68 -123.42,-164.18 -203.9,-81.97 -42.66,43.61 -79.65,108.63 -173.92,203.74 -119.24,120.34 -315.39,234.2 -542.88,234.2 -91.32,0 -116.19,-39.77 -116.19,-130.71l0 -522.91c34.02,-0.77 36.99,-7.45 116.19,-7.27l1772.05 0c72.77,0.07 108.95,17.02 108.95,-36.3 0,-279.59 -68.54,-520.83 -245.16,-720.76 -66.51,-75.26 -178.59,-161.22 -270.4,-208.94 -50.51,-26.27 -110.87,-54.85 -168.55,-71.1 -103.31,-29.07 -143.24,-37.74 -252.76,-37.74l0 196.09c96.52,0 159.89,17.46 160.17,108.54 0.29,95.26 6.87,169.71 6.87,269.09l0 290.52 -152.52 7.25c0,-142.93 -69.34,-310.72 -133.69,-418.25 -145.58,-243.14 -474.12,-453.24 -766.85,-453.24 -190.1,0 -310.21,9.03 -479.36,94.39 -322.33,162.63 -551.92,492.75 -551.92,856.99z"/>
   <path class="fil2" d="M19996.8 1893.85c0,-24.66 60.73,-44.9 82.31,-55.69l280.81 -154.93c115.06,217.45 203.09,532.77 50.96,762.69 -31.28,47.28 -107.46,146.83 -174.42,152.39 -3.64,-43.65 -100.36,-317.44 -115.16,-356.91l-124.5 -347.55zm384.44 1554.19l-16.4 0c-16.49,-2.97 -35.05,-12.1 -55.76,-7.27 -2.62,-31.57 -12.56,-56.91 -16.89,-92.3 -6.98,-57.03 26.86,-20.95 -29.52,-268l-84.32 -344.18c-113.15,0 -172.09,3.07 -273.36,-31.65 -28.57,-9.79 -43,-20.63 -67.97,-26.43 0.93,41.76 27.51,122.12 39.36,163.98 63.51,224.53 210.73,338.15 222.1,380.71l-476.19 0 0.08 -101.68 272.75 0c-11.77,-22.27 -24.06,-41.32 -37.78,-63.89 -15.72,-25.89 -20.28,-39.45 -32.83,-68.85 -20.97,-49.08 -37.34,-89.07 -53.8,-142.29 -14.89,-48.1 -64.41,-278.94 -64.41,-335.02 32.19,7.49 73.76,26.56 104.1,41.13 130.47,62.7 171.89,82.33 331.65,82.33 -21.71,-93.13 -72.46,-227.23 -104.44,-324.05 -35.08,-106.21 -72.85,-211.13 -112.4,-308.83 -17.31,-42.8 -50.19,-112.42 -18.51,-168.95 32.83,-58.53 166.05,-99.62 263,-158.22 45.46,-27.45 89.64,-50.05 132.11,-78.49 -24.66,-46.63 -49.98,-70.27 -79.87,-108.95 -26.41,-34.21 -60.74,-67.42 -87.22,-101.61 -112.07,-144.66 -220.02,-282.88 -311.85,-443.42l-131.1 -246.56c-20.55,15.04 -24.94,37.25 -38.7,62.96l-106.96 183.56 -407.97 572.46c-156.68,191.52 -277.82,428.88 -274.6,691.89 2.48,199.84 142.78,421.29 344.85,435.46l-0.14 101.68c-62.17,0 -137.13,-31.96 -179.74,-55.71 -24.47,-13.62 -48.61,-30.09 -68.44,-47.77 -228.13,-203.22 -234.4,-487.54 -142.53,-763.5 28.2,-84.73 62.29,-160.58 106.69,-234.62 44.08,-73.5 83.87,-134.27 141.35,-200.01 35.92,-41.07 66.78,-80.26 100.2,-124.95 33.54,-44.87 65.19,-83.71 96.07,-129.04 163.1,-239.56 206.71,-304.77 345.15,-562.66 13.89,-25.89 27.76,-47.81 44.06,-72.14 15.06,-22.51 33.87,-42.59 40.71,-68.24 21.32,15.64 31.43,48.3 43.57,72.63 128.07,256.43 269.58,522.09 459.15,739.17l148.72 178.1c10.19,12.59 15.76,22.23 24.02,34.07 8.67,12.4 13.4,16.65 21.75,29.09 84.27,-56.42 139.24,-105.76 213.7,-163.92 28.29,-22.09 49.53,-37.12 62.27,-68.43 25.32,10.3 8.21,-1.19 26.44,18.44 1.56,1.66 12.45,18.68 14.46,21.6 22.51,32.63 24.56,16.71 31.69,54.33l-290.48 225.14c8.81,37.79 43.78,90.98 61.3,134.8 18.54,46.37 33.78,92.7 48.6,140.21 67.98,217.85 50.82,429.65 -76.42,622.69l-91.5 104.59c-30.5,23.45 -73.99,62.71 -116.26,72.56l68.26 265.81c12.14,48.5 20.12,85.35 30.37,136.66 8.39,41.88 23.92,101.58 24.81,142.22 7.35,-4.93 222.53,-228.04 278.89,-272.95 5.86,-4.67 16.85,-13.42 20.28,-15.88 19.92,-14.25 1.85,-5.71 27.61,-16.2l0 130.73c-132.74,100.99 -177.45,174.97 -259.49,256.1 -35.17,34.78 -37.32,26.6 -44.57,57.11 -10.76,45.26 -23.31,60.85 -37.7,64.45z"/>
   <path class="fil3" d="M1237.75 3157.52l0 0zm0 0c2.74,-32.85 16.85,-41.48 31.49,-70.19 13.84,-27.12 24.87,-44.4 39.81,-69.11 17.93,-29.6 60.04,-113.88 81.21,-129.41 -5.72,24.63 -19.04,47.79 -32.12,69.56 -15.26,25.48 -24.34,45.56 -39.1,69.84 -21.99,36.16 -51.63,109.45 -81.29,129.31zm152.51 -268.71c6.16,-26.42 4,-23.29 21.79,-36.3 -6.15,26.41 -4,23.29 -21.79,36.3zm29.06 -50.84l-7.27 14.54 7.27 -14.54zm225.14 -377.64c6.15,-26.43 4,-23.29 21.78,-36.32l7.25 -14.52c4.98,-20.73 -1.1,-10.92 14.54,-21.78l7.27 -14.54c4.95,-20.71 -1.12,-10.92 14.51,-21.79l7.27 -14.51 7.25 -14.54c4.97,-20.71 -1.1,-10.92 14.54,-21.78l7.24 -14.52c4.98,-20.73 -1.09,-10.92 14.54,-21.79l7.27 -14.53c4.96,-20.71 -1.11,-10.92 14.52,-21.79l7.27 -14.52c4.95,-20.72 -1.12,-10.92 14.51,-21.78l7.27 -14.54c4.96,-20.71 -1.09,-10.92 14.52,-21.78l7.27 -14.52c4.95,-20.73 -1.1,-10.94 14.51,-21.78l7.27 -14.54 7.27 -14.52 7.27 -7.27 7.25 -14.51 7.27 -14.54 7.26 -7.25 7.25 -14.54 7.27 -14.51c4.96,-20.73 -1.1,-10.92 14.52,-21.79l7.27 -14.53c4.95,-20.73 -1.1,-10.93 14.53,-21.79l7.25 -14.52c4.97,-20.73 -1.09,-10.92 14.54,-21.78l7.25 -14.54c4.97,-20.73 -1.1,-10.92 14.53,-21.78l7.25 -14.52 7.27 -14.54 7.27 -7.24 7.27 -14.54 7.25 -14.52 7.26 -7.27c9.59,-41.15 387.18,-652.54 440.52,-750.52 18.31,-33.62 52.75,-80.03 60.6,-113.72l14.52 0c13.34,57.28 1186.19,2134 1198.31,2186.02l-1002.22 0 -152.52 -297.77 -1169.25 0c5.58,-23.96 210.48,-366.9 225.14,-377.64zm-515.64 704.46c0,99.95 125.11,144.09 197.37,52.14 32.28,-41.1 77.62,-137.05 109.04,-188.72 15.15,-24.87 35.68,-88.56 63.98,-88.56l1009.47 0c28.14,0 77.31,120.17 89.54,142.87l84.76 154.89 1234.63 0 -254.15 -464.84c-8,-15.51 -13.73,-23.16 -21.48,-36.6l-712.4 -1292.07c-14.9,-25.79 -28.28,-53.58 -43.57,-79.89l-149.87 -271.34c-10.06,-18.1 -15.03,-23.57 -24.15,-41.23l-149.69 -271.51c-14.48,-27.8 -3.9,-26.09 -31.82,-33.54 -8.16,34.98 -61.72,113.55 -82.14,150.26 -174.73,314.03 -438.08,746.46 -623.69,1053.93 -120.42,199.46 -235.66,397.25 -354.9,596.49 -29.66,49.56 -60.16,96.99 -89.23,150.42 -29.18,53.6 -60.26,96.65 -89.44,150.25l-130.85 225.01c-14.15,26.05 -31.41,56.18 -31.41,92.04z"/>
   <path class="fil4" d="M17237.04 1465.36c57.36,0 101.56,-7.25 167.04,-7.25l0 21.79c-60.36,0 -100.73,-7.27 -167.04,-7.27l0 -7.27zm-50.84 1597.75c111.53,0 214.63,-134.2 256.74,-222.58 18.63,-39.1 24.4,-83.37 55.55,-104.24 0,113.8 -130.41,253.42 -213.57,316.61 -200.35,152.23 -631.57,181.69 -834.01,-46.11 -98.03,-110.33 -121.68,-261.85 -121.68,-466.59l0 -1074.84 -239.66 -14.52c89.91,0 153.51,7.27 239.66,7.27 0,-235.78 -20.16,-188.59 84.1,-228.2 35.24,-13.41 67.1,-26.93 98.51,-39.47 66.25,-26.48 124.19,-50.66 189.87,-78.84l269.04 -130.41c24,-11.98 72.5,-40.79 91.99,-45.98 0,54.31 -6.98,85.47 -7.55,130.42 -0.57,47.17 2.84,99.12 0.32,145.57l-7.3 211.08c-0.31,10.76 -1.65,22.82 -1.99,31.69 -0.84,20.81 -0.59,1.28 0.91,26.94 13.15,224.63 0.44,723.14 0.83,1001.45 0.08,49.07 7.66,80.73 7.53,137.74 -0.28,126.55 -40.73,443.01 130.71,443.01zm-958.65 -1873.71l0 159.76c-147.19,0 -239.65,-22.67 -239.65,116.2 0,77.21 66.31,105.88 130.81,105.23l108.84 -3.55 0 994.97c0,159.15 14.52,291.82 82.25,418.85 36.1,67.73 97.78,135.08 161.64,179.7 251.49,175.77 651.36,134.84 881.86,-32.01 245.44,-177.68 320.67,-493.92 166.99,-493.92 -131.01,0 -115.2,59.41 -174.71,173.9 -28.56,54.98 -91.79,146.69 -166.64,152.9 -37.95,-79.08 -20.04,-282.07 -21.48,-399.72 -0.53,-41.22 -7.76,-50.23 -7.82,-93.87l0.26 -900.8c113.5,0 355.86,58.25 355.86,-79.9 0,-171.54 -85.81,-130.52 -355.8,-121.77 -0.06,-59.27 4.74,-100.5 7.23,-146.9 2.76,-51.08 -3.81,-109.04 0.35,-159.42l14.15 -298.15c-23.61,1.97 -34.58,12.41 -55.67,24.23l-278.42 150.08c-19.37,9.68 -38.53,19.57 -57.98,29.15 -20.21,9.95 -38.4,15.63 -60.71,26.44 -79.06,38.27 -157.84,71.02 -238.2,103.13 -43.47,17.39 -79.32,32.86 -125.14,49.18l-128.02 46.29z"/>
   <path class="fil5" d="M7330.99 3077.65l2.17 2.15c-0.14,-0.14 -2.89,-1.44 -2.17,-2.15zm232.41 -130.73l0 0zm0 0l0 0zm21.78 -14.52l0 0zm7.27 -7.27l-7.27 7.27 7.27 -7.27zm-566.48 -1467.02c13.57,-8.63 -16.22,-8.18 14.52,-6.01 15.49,1.12 6.5,0.91 14.52,6.01l-29.04 0zm43.57 -14.54c8.41,-8.4 41.4,12.29 9.08,2.97 -0.88,-0.27 -21.68,9.64 -9.08,-2.97zm50.84 -7.25c8.41,-8.42 41.4,12.29 9.06,2.95 -0.86,-0.24 -21.66,9.64 -9.06,-2.95zm-544.69 101.64c78.19,0 164.31,-21.8 246.93,-21.8 32.85,-23.29 153.67,-58.05 203.35,-58.05 -1.54,0.97 -4.14,0.18 -4.93,2.34 -3.07,8.24 -78.29,13.72 -104.01,48.46 99.36,0 178.6,-13.46 276.22,-14.27 45.6,-0.37 82.88,-6.64 138.04,-7.23 46.74,-0.51 81.4,-7.55 137.7,-7.55 -23.84,-32.17 -82.54,-35.27 -119.02,-40.73 -47.59,-7.15 -100.58,-2.81 -149.72,-2.81l0 -7.26c273.33,0 407.43,-10.36 674.92,44.08 174.4,35.49 387.83,131.07 429.35,296.91 77.33,308.85 -51.25,1118.55 79.53,1365.69l-777.08 0 -14.52 -210.61c21.89,-32.71 14.8,-42.57 14.54,-94.39 -0.19,-38.72 -0.02,-77.49 -0.02,-116.23 0,-79.31 0,-158.61 0,-237.93l-101.68 -0.59 0 391.03c-51.74,34.66 -91.83,72.26 -155.5,98.7 -224.84,93.33 -193.11,-8.14 -193.11,-251.21 0,-88.83 0,-177.65 0,-266.48l-101.67 -0.49c0,100.5 -14.36,488.55 19.63,566.9 54.53,125.76 215.07,73.3 249.1,70.46 -7.41,6.43 -2.13,3.92 -16.93,12.14l-152.91 50.43c-308.97,78.04 -655.24,-56.36 -771.35,-363.26 -39.94,-105.5 -41.44,-308.63 18.37,-396.5 -10.47,-9.83 -5.54,-9.02 -22.74,-16.47 -13.94,-6.05 -10.19,-3.92 -26.92,-5.22 -16.55,-1.29 -41.4,-0.06 -58.82,-0.08 -7.75,49.26 -52.03,152.91 -43.34,253.61 21.62,251.11 122.44,418.39 337.94,548.43 431.42,260.3 871.86,-43.21 918.25,-54.03l0 123.46 1045.81 0c-14.4,-53.86 -124.58,-157.87 -123.65,-384.74 0.98,-238.18 8.35,-804.25 -7.67,-1009.06 -5.93,-75.96 -27.33,-143.49 -57.7,-196.48 -24.59,-42.9 -85.07,-104.72 -127.47,-134 -204.67,-141.47 -495.29,-185.75 -838.25,-185.75 -225.51,0 -373.01,9.36 -560.14,71.69 -39.31,13.09 -60.1,22.05 -93.62,37.11 -37.05,16.67 -54.45,24.35 -87.4,43.33l-59.25 34.9c-21.15,18.11 -6.92,2.3 -20.26,23.55z"/>
   <path class="fil6" d="M4033.81 1116.78l0 -87.17 718.99 0 0 762.57c0,179.42 -7.27,343.38 -7.27,515.64l7.27 827.92 -726.24 0c0,-92.22 7.31,-159.08 7.25,-246.93l0 -762.56c0,-173.23 7.23,-325.1 7.26,-501.11 0.03,-89.31 -7.26,-154.68 -7.26,-246.92 0,-87.16 0,-174.3 0,-261.44zm-101.66 -174.31l7.25 827.92c0.06,86.11 -7.25,149.76 -7.25,239.66l-7.27 1118.44c-0.02,33.92 -13.67,108.92 21.79,108.92l907.81 0 0 -493.85c0,-150.47 -7.27,-285.46 -7.27,-428.48 0,-146.18 7.27,-282.6 7.27,-435.76l0 -958.65 -900.55 0c-16.72,0 -21.78,5.05 -21.78,21.8z"/>
   <path class="fil7" d="M6118.16 1458.11l174.28 0 0 7.25 -174.28 0 0 -7.25zm-1089.38 0l101.68 0 0 7.25 -101.68 0 0 -7.25zm1212.84 -515.64c27.11,2.26 68.61,24.83 87.8,35.65 44.32,25.04 49.94,32.9 42.91,66.01 -52.52,-1.16 -37.17,-26.01 -114.97,-88.36 -6.09,-4.85 -11.17,-9.34 -15.74,-13.3zm0 0c-34.49,0 -13.78,0.17 -21.8,-7.26 34.49,0 13.79,-0.17 21.8,7.26zm-1082.11 1612.23c18.46,39.49 -23.59,-4.85 14.56,10.9 7.55,3.13 17.07,4.84 24,6.18 20.4,3.95 33.13,4.71 63.1,4.71 0,-126.05 6.7,-589.53 -0.37,-675 -3.31,-39.9 -18.01,-392.52 -0.87,-444.64l9.72 -33.84c43.37,-228.17 99.39,-368.87 361.77,-473.43 70.16,-27.96 184.23,-51.25 283.32,-50.74 100.49,0.53 140.22,-4.57 238.02,16.28l62.21 17.69c1.07,0.47 3.33,1.42 4.85,2.4 -97.19,0 -134.75,11.83 -175.56,71.34 -110.74,161.51 -40.89,493.53 -57.22,690.83 -13.96,168.86 -7.61,551.62 -6.86,755.7 0.2,50.76 -6.29,75.15 -7.69,116.12 -1.65,48.48 7.67,76.26 7.67,130.75 53.44,0 49.95,21.11 101.68,20.2l-6.44 -142.32c13.49,-163.2 6.48,-544.11 6.44,-727.54 -0.02,-100.26 7.27,-184.44 7.27,-290.52 32.75,15.73 147.84,10.88 196,7.19 151.28,-11.58 137.15,-204.84 7.68,-210.87 -66.56,-3.11 -143.22,0.34 -210.95,0.34 0,-102.26 6.62,-270.8 66.98,-310.92 87.99,-58.51 108.36,153.66 253.12,93.6 129.41,-53.68 132.68,-270.03 -272.33,-331.57 -162.89,-24.77 -352.3,-13.65 -508.16,37.66 -52.87,17.4 -83.94,34.96 -130.41,58.41 -83.41,42.11 -145.82,106.66 -202.54,175.1 -40.45,48.79 -107.2,192.59 -107.2,277.72 -126.8,0 -241.69,-21.84 -252.86,96.22 -11.21,118.49 136.84,127.38 223.8,107.12 0,332.85 7.27,655.85 7.27,994.93z"/>
   <path class="fil5" d="M12538.2 1857.53c6.37,-23.85 10.54,-23.91 29.05,-36.3 -6.37,23.86 -10.53,23.92 -29.05,36.3zm36.32 -43.57l-7.27 7.27 7.27 -7.27zm7.25 -7.27l-7.25 7.27 7.25 -7.27zm0 0l0 0zm196.11 -196.08l0 0zm7.24 -7.25l-7.24 7.25 7.24 -7.25zm0 0l0 0zm-1096.63 915.04c32.75,-5.87 68.45,-20.99 101.68,-21.79l0 -769.79c0,-92.74 -7.27,-170.04 -7.27,-254.19l726.25 0 0 399.44c21.5,-5.75 11.77,-2.96 29.05,-14.54 -20.73,77.64 -29.05,-41.33 -29.05,203.36l0 718c42.33,0.57 62.24,-13.38 101.67,-14.25 0,-106.11 -12.12,-798.59 6.05,-835.7 19.68,-40.16 157.46,-186.93 201.35,-219.88 72.1,-54.13 144.45,-91.12 241.32,-75.1 47.65,7.87 139.52,83.68 248.35,27.34 45.38,-23.49 78.1,-66.77 86.04,-125.25 21.42,-157.83 -244,-301.94 -552.22,-108.52 -148.78,93.4 -166.63,154.59 -230.89,197.61l0 -254.19 -929.59 0c0,191.32 7.26,369.42 7.26,566.48 0,193.65 0,387.3 0,580.97z"/>
   <path class="fil8" d="M11281.78 1465.36c75.77,0 123.28,-7.25 196.09,-7.25l0 21.79c-70.88,0 -120.34,-7.27 -196.09,-7.27l0 -7.27zm-1118.41 -14.52c82.57,0 137.02,7.27 217.87,7.27l0 7.25c-39.31,0 -84.99,-2.17 -123.5,-0.02 -32.06,1.79 -24.37,5.78 -52,7.71 -48.69,3.39 -31.61,-1.74 -42.37,-22.21zm145.25 1253.5c25.38,-4.45 24.24,-9.55 45.72,-12.71 15.57,-2.3 39.16,-1.12 55.96,-1.67 0,-64.22 -7.29,-108.72 -7.28,-178.79l7.28 -900.56c0,-58.76 -4.45,-129.76 -1.31,-167.85 4.61,-55.71 1.31,-123.64 1.31,-180.74l726.24 -326.81c0,75.65 -7.54,125.49 -7.27,196.06 0.12,33.24 1.23,68.97 0.24,101.95 -1.16,38.61 -7.86,54.65 -7.59,101.33l0.1 1038.62c-0.04,78.74 7.27,129.8 7.27,209.29 32.38,-0.41 80.78,3.71 101.67,-8.41 0,-90.45 -7.26,-153.76 -7.26,-244.45l0 -762.56c72.19,0 150.87,15.1 225.3,14.9 76.91,-0.22 130.73,-25.58 131.26,-109.21 1.01,-155.93 -133.31,-111.79 -232.86,-108.81 -40.18,1.2 -83.2,-0.24 -123.7,-0.24l10.33 -301.95c6.86,-45.43 4.37,-99.48 4.08,-148.41 -0.32,-57.36 7.37,-90.51 7.37,-152.42 -24.28,5.67 -276.53,150.41 -331.57,176.82l-477.63 205.02c-40.65,15.47 -93.17,30.11 -127.66,46.66 0,194.3 14.21,164.78 -50.38,160.15 -78.43,-5.6 -152.31,-2.76 -181.14,44.06 -26.88,43.59 -27.11,120.7 34.25,160.09 52.26,33.56 124.68,13.34 197.27,13.34l-1.06 572.67c-10.8,96.13 -5.64,305.01 -6.25,422.34 -0.29,55.06 7.31,87.55 7.31,142.29z"/>
   <path class="fil4" d="M9110.31 3143l2.17 2.18c-0.16,-0.15 -2.9,-1.45 -2.17,-2.18zm-36.33 -7.26c7.72,-7.72 27.56,11.53 8.11,3.77 -0.17,-0.06 -20.27,8.39 -8.11,-3.77zm-29.05 -7.27c37.08,0 12.06,-0.11 21.81,7.27 -38.42,0 -10.84,-0.05 -21.81,-7.27zm0 0c-60.34,-1.34 -334.69,-109.01 -341.33,-188.82 51.61,4.3 116.6,106.79 289.54,168.01l51.79 20.81zm1074.87 -537.45c-10.21,6.93 -1.3,3.52 -21.28,6.44 -8.34,1.22 -20.38,1.16 -29.05,1.2 -16.91,0.12 -34.32,-0.39 -51.35,-0.39 0,76.52 26.37,143.81 -31.37,259.19 -109.9,219.56 -388.8,309.4 -622.25,314.6 31.96,-22.22 70.29,-12.73 101.62,-72.67 52.34,-100.07 -56.16,-210.6 -121.66,-284.95l-301.42 -323.17c-19.65,-19.34 -23.02,-28.1 -39.91,-47.22 -131.46,-148.78 -273.77,-283.13 -304.14,-495.23 -15.35,-107.26 55.57,-233.96 126.16,-311.07 15.29,-16.69 29.04,-23.33 47.33,-39.81 23.61,-21.28 77.64,-57.79 107.1,-69.89l-131.12 -0.87c-9.02,-0.59 -12.06,-0.71 -20.79,-2.82 -17.34,-4.22 -7.68,-0.49 -18.23,-8.16 -25.81,23.89 -48.67,48.36 -75.04,74.39 -55.69,54.98 -93.09,127.75 -117.11,202.42 -45.3,140.84 -15.47,258.4 49.9,384.18 43.21,83.1 234.16,317.05 314.07,397.67 14.28,14.4 26.72,24.55 39.76,40.12l228.99 250.32c27.11,29.13 49.85,53.19 76.02,83.75 30.66,35.79 51.97,61.64 52.99,106.79 -93.52,44.87 -300.99,-23.06 -374.65,-53.84 -55.02,-22.98 -99.43,-47.21 -144.22,-80.91 -43.4,-32.65 -77.62,-83.83 -149.28,-83.83 -101.93,0 -185.7,125.84 -11.54,251.9 288.75,209 855.47,256.81 1169.36,42.39 24.3,-16.61 43.12,-31.39 66.57,-49.6 42.44,-32.95 80.4,-77.72 110.55,-121.86 52.49,-76.82 80.91,-167.8 81.58,-267.21 0.33,-45.68 -7.59,-65.13 -7.59,-101.86z"/>
   <path class="fil9" d="M7534.34 2155.3l2.18 2.17c-0.15,-0.14 -2.91,-1.44 -2.18,-2.17zm-14.51 -7.27l2.15 2.17c-0.14,-0.14 -2.89,-1.44 -2.15,-2.17zm-14.54 -7.25l2.17 2.15c-0.14,-0.14 -2.88,-1.44 -2.17,-2.15zm-14.52 -7.27l2.15 2.18c-0.14,-0.15 -2.88,-1.44 -2.15,-2.18zm-21.78 -7.26l15.61 3.99 -15.61 -3.99zm0 0l-15.62 -3.98 15.62 3.98zm-36.33 -14.52l15.62 4 -15.62 -4zm0 0l-15.61 -4 15.61 4zm-36.3 -14.52l15.62 3.98 -15.62 -3.98zm-479.33 -588.3c-20.65,-5.04 -4,-4.41 -21.83,0.34 -29.74,7.92 -119.22,79.39 -142.16,97.15 -66.58,51.58 -65.66,113.15 -155.56,113.15 -34.36,-51.3 -7.23,-83.44 67.48,-128.59 28.47,-17.2 125.46,-73.5 157.66,-74.8 -82.62,0 -168.74,21.8 -246.93,21.8 -14.5,0.35 -1.38,-4.04 -16.28,5.87 -185,123.22 -22.25,387.24 167.2,232.23 87.81,-71.86 70.95,-105.09 231.47,-182.49 104.28,-50.27 339.24,-87.63 471.74,-30.96 77.44,33.12 75.75,94.79 75.31,200.68 -0.23,51.57 7.75,75.22 7.47,130.53 -0.23,45.98 -0.04,92.03 -0.04,138.01 -341.38,-163.78 -877.81,-116.05 -1135.27,201.05 -18.19,22.43 -30.05,37.62 -45.58,63.36 -13,21.58 -22.48,56.73 -39.27,69.7 17.42,0.02 42.27,-1.21 58.82,0.08 16.73,1.3 12.98,-0.83 26.92,5.22 17.2,7.45 12.27,6.64 22.74,16.47 23.05,-121.01 246.26,-259.64 386.23,-304.2 131.64,-41.91 447.31,-62.6 595.2,5.9 14.91,6.91 6.5,2.58 14.01,7.8 -67.28,-1.5 -318.74,-113.57 -334.29,174.08 -3,55.28 -7.06,109.96 -7.06,176.25l101.67 0.49 7.13 -162.14c3.15,-68.2 2.99,-106.06 72.52,-109.37 68.65,-3.27 152.13,28.64 209.94,52.34 22.41,9.19 41.07,22.25 66.29,28.12 0,73.57 -7.27,137.22 -7.27,219.01l101.68 0.59c0,-99.51 9.31,-171.61 5.26,-273.57 -2.44,-61.27 2.73,-509.93 -9.24,-566.64 -14.05,-66.65 -36.2,-95.73 -81.22,-136.72 -35.16,-32.02 -40.38,-22.82 -52.78,-19.79 -56.3,0 -90.96,7.04 -137.7,7.55 -55.16,0.59 -92.44,6.86 -138.04,7.23 -97.62,0.81 -176.86,14.27 -276.22,14.27z"/>
   <path class="fil8" d="M9625.94 1458.11l0 0zm0 0l-29.05 0c13.58,-8.63 -16.22,-8.18 14.52,-6.01 15.51,1.12 6.5,0.91 14.53,6.01zm-58.1 -14.54c7.86,-7.85 39.65,10.89 11.96,3.76 -6.44,-1.67 -24.21,8.51 -11.96,-3.76zm-43.57 -7.25l29.05 0c-13.58,8.61 16.22,8.17 -14.54,5.97 -15.49,-1.07 -6.47,-0.87 -14.51,-5.97zm-714.83 79.88c10.55,7.67 0.89,3.94 18.23,8.16 8.73,2.11 11.77,2.23 20.79,2.82l131.12 0.87c185.95,-99.54 301.7,-98.99 515.63,-98.99l0 7.26c-95.36,0 -174.36,-2.65 -222.92,45.79 -138.33,137.94 157.55,393.57 257.42,493.45l141.63 134.34c47.7,47.79 89.99,90.49 138.02,137.96 71.23,70.41 159.22,190.89 190.91,288.26 7.86,24.2 7.98,36.81 17.85,62.15 17.03,0 34.44,0.51 51.35,0.39 8.67,-0.04 20.71,0.02 29.05,-1.2 19.98,-2.92 11.07,0.49 21.28,-6.44 -38.96,-127.64 -42.27,-180.41 -147.44,-310.06 -17.93,-22.14 -30.34,-38.87 -50.44,-58.52 -64.99,-63.49 -69.15,-86.35 -170.38,-170.95l-225.47 -224.82c-50.35,-50.35 -156.09,-156.39 -181.2,-219.07 -1.85,-4.59 -6.03,-18.84 -6.17,-21.34 -4.04,-62.59 91.75,-50.86 142.06,-48.34 254.46,12.75 367.12,222.48 483.88,171.83 39.02,-16.94 72.89,-49.26 75.59,-99.51 8.24,-154.42 -294.94,-235.86 -414.75,-260.61 -261.02,-53.9 -539.94,-22.33 -763.64,128.7 -21.12,14.26 -30.54,23.37 -52.4,37.87z"/>
   <path class="fil10" d="M21260.51 434.09c120.84,46.99 146.52,46.57 244.83,161.85 29.99,35.19 71.29,112.74 91.73,155.18 81.92,170.12 84.62,316 84.62,561.72 36.63,-19.37 118.69,-93.65 146.94,-121.77l149.69 -126.29c84.36,-61.92 186.47,-107.91 298.82,-108.05 60.97,-0.08 77.91,10.98 123.55,14.78 -28.45,53.78 -132.89,382.08 -128.99,435.76 0,63.55 -14.15,326.31 5.52,361.07l48.26 -189.35c19.05,-65.15 36.26,-133.63 51.9,-195.05 20.26,-79.63 82.23,-307.38 114.22,-368.84 10.01,-37.97 31.66,-69.95 54.33,-91.18 12.15,-29.02 41.12,-62.72 63.43,-85.05 27.73,-27.76 45.54,-43.29 78.86,-66.42 54.29,-37.7 134.71,-75.54 220.79,-76.9l0 -101.68c-197.69,0 -357.98,134.61 -457.48,283.23 -34.4,-0.75 -61.54,-13.24 -97.18,-19.03 -203.39,-33.09 -399.13,78.64 -540.1,209.69 -14.21,13.2 -15.08,16.63 -30.88,27.21 0,-239.54 -145.65,-596.56 -384.68,-719.22 -40.49,-20.77 -75.53,-24.71 -123.69,-43.3 -18.39,15.37 -4.4,-1.83 -11.61,21.25 -3.15,10.05 -3.67,18.74 -3.96,29.42 -0.41,14.99 1.08,34.99 1.08,50.97z"/>
   <path class="fil3" d="M2036.63 2010.05c6.86,29.5 112.46,217.59 135.57,263.88 17.58,35.25 29.9,56.75 48.32,89.66l186.5 358.18c-139.99,0 -255.49,7.27 -392.17,7.27 -139.57,0 -257.08,-7.27 -399.45,-7.27 17.24,-25.74 35.76,-59.28 50.84,-87.14l370.39 -624.58zm-7.27 -196.09l-7.26 7.27 -7.25 14.52 -7.27 14.54 -7.27 7.24 -7.27 14.54 -7.25 14.52c-4.97,20.73 1.1,10.92 -14.53,21.78l-7.25 14.54c-4.98,20.71 1.09,10.92 -14.54,21.78l-7.25 14.52c-4.97,20.73 1.1,10.93 -14.53,21.79l-7.27 14.53c-4.96,20.71 1.11,10.93 -14.52,21.79l-7.27 14.51 -7.25 14.54 -7.26 7.25 -7.27 14.54 -7.25 14.51 -7.27 7.27 -7.27 14.52 -7.27 14.54c-4.95,20.71 1.12,10.92 -14.51,21.78l-7.27 14.52c-4.96,20.73 1.11,10.92 -14.52,21.78l-7.27 14.54c-4.95,20.71 1.1,10.93 -14.51,21.78l-7.27 14.52c-4.96,20.73 1.09,10.93 -14.52,21.79l-7.27 14.53c-4.95,20.73 1.1,10.93 -14.54,21.79l-7.24 14.52c-4.98,20.73 1.09,10.92 -14.54,21.78l-7.25 14.54 -7.27 14.51c-4.95,20.73 1.1,10.93 -14.51,21.79l-7.27 14.54c-4.96,20.71 1.09,10.92 -14.54,21.78l-7.25 14.52c-6.15,26.43 -4.02,23.29 -21.78,36.32 -5.61,24 -79.55,148.09 -97.52,178.47 -18.82,31.81 -31.75,55.44 -50.92,87.08 -13.56,22.39 -42.39,67.67 -47.65,90.31 35.94,0.81 47.77,7.3 130.71,7.26l994.98 -7.26c-22.2,-41.93 -44.12,-80.71 -65.36,-123.47l-338.9 -641.54c-22.7,-45.84 -45.3,-83.06 -67.75,-128.33l-50.55 -95.51c-16.05,-28.44 -0.15,-22.8 -22.14,-13.38z"/>
   <path class="fil11" d="M11129.29 2582.46c0,155.09 -45.12,485.91 137.85,481.24 115.25,-2.94 204.9,-134.41 249.53,-223.25 16.38,-32.59 30.94,-86.07 55.63,-104.16 0,155.85 -209.32,348.89 -377.64,399.49 -269.15,80.88 -609.19,42.96 -738.48,-234.75 -21.24,-45.62 -45.88,-147.78 -45.88,-211.07 -16.8,0.55 -40.39,-0.63 -55.96,1.67 -21.48,3.16 -20.34,8.26 -45.72,12.71 0,201.95 131.5,424.79 317.31,506.25 295.86,129.74 721.98,63.81 924.65,-198.26 49.84,-64.46 132.76,-169.71 123.42,-290.5 -4.53,-58.63 -45.97,-93.88 -116.05,-87.58 -118.35,10.64 -108.12,203.17 -229.22,294.23 -24.29,18.25 -37.14,32.1 -75.98,32.95 -34.07,-70.98 -21.79,-277.8 -21.79,-387.38 -20.89,12.12 -69.29,8 -101.67,8.41z"/>
   <path class="fil3" d="M11688.49 2518.4c0,248.22 -7.26,475.05 -7.26,719.01l936.86 0c0,-165.57 -7.27,-313.86 -7.27,-472.77 -39.43,0.87 -59.34,14.82 -101.67,14.25 0,125.98 7.26,228.61 7.26,356.85l-733.51 0c0,-112.87 7.27,-203.5 7.27,-319.55 0,-106.54 0,-213.07 0,-319.58 -33.23,0.8 -68.93,15.92 -101.68,21.79z"/>
   <path class="fil1" d="M6081.84 2720.15c-51.73,0.91 -48.24,-20.2 -101.68,-20.2 0,72.64 0.16,145.29 0,217.93 -0.18,77.46 7.27,135.2 7.27,217.86l-733.51 0c0,-191.77 7.25,-363.96 7.25,-559.25 -29.97,0 -42.7,-0.76 -63.1,-4.71 -6.93,-1.34 -16.45,-3.05 -24,-6.18 -38.15,-15.75 3.9,28.59 -14.56,-10.9 0,235.35 -7.27,446.93 -7.27,682.71l936.87 0c0,-179.64 -7.27,-336.05 -7.27,-517.26z"/>
   <path class="fil12" d="M15167.22 3157.52l0 0zm58.11 -7.25c8.41,-8.43 41.4,12.28 9.08,2.95 -0.88,-0.25 -21.68,9.66 -9.08,-2.95zm36.31 -7.27c8.42,-8.42 41.39,12.29 9.07,2.97 -0.87,-0.27 -21.66,9.64 -9.07,-2.97zm36.32 -7.26c7.71,-7.72 27.55,11.53 8.08,3.77 -0.16,-0.06 -20.24,8.39 -8.08,-3.77zm43.57 -7.27c-9.73,7.37 15.28,7.27 -21.79,7.27 8.89,-6.73 -8.16,-4.72 21.79,-7.27zm21.78 -7.25c-8,7.41 12.71,7.25 -21.78,7.25 8.02,-7.41 -12.71,-7.25 21.78,-7.25zm21.79 -7.27c-8,7.43 12.71,7.27 -21.79,7.27 8.02,-7.43 -12.69,-7.27 21.79,-7.27zm472.06 -156.9c-18.51,-6.26 -73.05,-42.66 -83.1,-60.97 -58.16,54.67 -103.24,82.97 -175.17,126.63 -37.76,22.92 -167.6,87.4 -213.79,91.24l43.41 -21.97c77.21,-33.72 244.48,-137.47 283.41,-195.98l-27.82 -1.14c-15.08,-28.47 0.55,-13.67 -24.14,-34.05 -19.94,-16.47 -10.82,-1.14 -27.37,-22.84l-102.24 79.87c-108.63,77.01 -262.64,142.22 -399.43,145.27l0 203.36c230.48,0 581.87,-149.07 726.24,-309.42z"/>
   <path class="fil13" d="M19208.39 2641.88l-0.14 101.68c73.29,21.4 191.97,-3.63 259.37,-28.06 26.43,-9.58 52.67,-23.94 78.9,-30.03 -8.55,17.79 -15.31,54.82 -20.22,74.19 -7.19,28.34 -14.58,48.51 -22.44,71.97 -29.54,88.4 -63.42,187.99 -111.18,266.48 -15.97,26.27 -64.85,100.64 -71.3,124.79l300.91 0 0.08 -101.68 -126.69 0c48.14,-90.96 87.85,-190.93 119.34,-301.89 16.49,-58.02 30.17,-107.14 42.29,-168.31 4.9,-24.59 10.85,-54.49 16.92,-84.79 6.23,-31.2 15.2,-63.18 17.54,-91.38 -25.54,6.82 -78.39,47.32 -103.1,63.93 -70.66,47.45 -147.85,84.08 -232.72,101.36 -67.54,13.76 -83.6,8.28 -147.56,1.74z"/>
   <path class="fil14" d="M15632.59 2837.97c16.55,21.7 7.43,6.37 27.37,22.84 24.69,20.38 9.06,5.58 24.14,34.05l27.82 1.14c19.97,-13.24 35.81,-29.91 52.6,-48.99 11.72,-13.35 11.13,-15.31 22.28,-28.57 26.77,-31.86 89.43,-124.5 121.2,-132.97 17.93,37.38 -17.54,86.47 -42.35,117.42 -47.81,59.61 -54.74,57.45 -91.59,93.19 10.05,18.31 64.59,54.71 83.1,60.97 46.72,-43.25 104.63,-101.25 133.4,-159.99 37.78,-77.15 37.94,-163.12 -38.66,-199.09 -118.96,-55.84 -168.11,74.31 -245.49,161.87 -24.85,28.14 -54.96,47.69 -73.82,78.13z"/>
  </g>
 </g>
</svg>