<?xml version="1.0" standalone="no"?>
<!DOCTYPE svg PUBLIC "-//W3C//DTD SVG 20010904//EN"
 "http://www.w3.org/TR/2001/REC-SVG-20010904/DTD/svg10.dtd">
<svg version="1.0" xmlns="http://www.w3.org/2000/svg"
 width="360.000000pt" height="201.000000pt" viewBox="0 0 360.000000 201.000000"
 preserveAspectRatio="xMidYMid meet">

<g transform="translate(0.000000,201.000000) scale(0.100000,-0.100000)"
fill="#000000" stroke="none">
<path d="M395 1748 c19 -35 86 -154 147 -266 106 -190 113 -201 116 -167 2 20
-1 42 -7 49 -6 7 -64 109 -130 227 -91 163 -124 215 -140 217 -20 3 -19 -1 14
-60z"/>
<path d="M288 1637 l-67 -112 60 -112 c32 -61 59 -116 59 -122 0 -6 -38 -11
-97 -13 -138 -4 -130 -23 9 -23 l112 0 20 -37 20 -38 133 0 c73 0 133 3 133 8
0 15 -302 562 -310 562 -3 0 -35 -51 -72 -113z m120 11 c12 -24 36 -68 53 -98
66 -114 189 -343 189 -352 0 -5 -48 -7 -106 -6 l-106 3 -42 80 c-23 44 -61
117 -84 161 l-43 82 51 86 c28 47 54 86 58 86 5 0 18 -19 30 -42z"/>
<path d="M2211 1648 c0 -40 3 -68 9 -68 12 0 12 27 1 90 -8 44 -9 44 -10 -22z"/>
<path d="M3353 1662 c-56 -26 -111 -56 -122 -67 -44 -44 -50 -46 -73 -34 -13
6 -6 -3 15 -21 20 -17 46 -48 57 -68 l19 -37 1 32 c0 23 -5 33 -19 38 -11 3
-22 12 -25 20 -6 18 2 45 15 45 4 0 17 10 28 22 11 11 69 43 128 69 59 27 101
48 93 48 -8 0 -61 -21 -117 -47z"/>
<path d="M1178 1671 c26 -17 33 -27 30 -49 -3 -24 -7 -27 -40 -26 -21 1 -38
-3 -38 -7 0 -5 8 -9 18 -9 25 0 42 -19 42 -47 0 -18 -7 -25 -30 -29 l-30 -6
-2 -172 -3 -171 -107 -3 -108 -3 0 176 c0 107 -4 175 -10 175 -6 0 -11 -69
-12 -172 l-3 -173 -160 -3 c-88 -2 -201 0 -251 3 l-91 7 -16 34 -17 34 -114 0
c-103 0 -115 -2 -120 -18 -4 -11 -17 -29 -30 -41 -20 -19 -28 -21 -45 -12 -12
7 -21 17 -21 23 0 6 -3 8 -7 5 -14 -14 31 -47 64 -47 33 0 83 36 83 60 0 6 35
10 93 10 l93 0 17 -35 17 -35 392 2 393 3 5 30 c4 22 8 26 14 16 5 -7 27 -22
51 -32 37 -16 71 -18 301 -19 142 -1 270 -1 284 -1 47 1 111 24 140 51 l29 27
23 -25 c47 -50 147 -68 208 -37 25 13 29 13 34 -1 5 -12 26 -14 128 -12 l123
3 3 145 c2 133 4 146 23 163 35 28 49 22 38 -15 -21 -75 -1 -169 49 -222 35
-37 117 -76 163 -76 52 0 122 23 163 55 l36 27 0 -29 c0 -16 5 -34 12 -41 31
-31 158 1 208 52 l33 34 21 -31 c45 -65 148 -86 233 -47 44 19 83 69 83 104 0
12 -9 2 -23 -24 -42 -79 -152 -109 -228 -62 -39 24 -56 52 -65 113 -7 40 -18
57 -28 40 -4 -5 -2 -12 4 -16 22 -14 8 -50 -35 -91 -46 -45 -94 -64 -157 -64
-36 0 -38 1 -38 34 0 33 1 34 52 40 44 6 59 14 92 49 35 37 37 41 20 48 -28
11 -182 11 -189 0 -3 -5 -1 -12 5 -16 37 -23 -34 -114 -107 -139 -65 -22 -120
-20 -180 9 -93 43 -144 159 -111 252 8 23 13 45 10 48 -13 13 -55 3 -77 -20
-24 -23 -25 -28 -25 -170 l0 -145 -87 0 c-114 0 -133 6 -133 37 l0 24 -26 -20
c-41 -32 -97 -44 -146 -30 -90 23 -108 61 -108 219 0 126 -5 137 -42 103 -17
-15 -21 -15 -64 6 -25 13 -47 21 -50 18 -2 -2 16 -24 41 -48 65 -63 105 -126
105 -167 0 -79 -75 -135 -181 -135 -106 0 -198 70 -144 110 15 10 25 8 60 -12
69 -41 69 -29 1 51 -65 75 -82 114 -74 165 4 32 -33 73 -84 94 -52 21 -59 14
-9 -8 62 -28 68 -45 73 -204 3 -130 5 -144 26 -166 12 -13 22 -26 22 -30 0 -4
-58 -7 -130 -7 -71 0 -130 4 -130 9 0 5 -34 7 -77 4 -89 -5 -128 11 -163 69
-43 70 -20 154 54 199 20 12 25 19 14 19 -21 0 -48 26 -48 46 0 8 11 26 25 39
18 16 22 25 13 28 -10 4 -11 7 0 18 6 7 12 25 12 41 0 29 -24 50 -70 63 -21 5
-20 3 8 -14z m22 -231 c0 -13 -29 -45 -35 -39 -3 4 -3 24 1 45 6 34 8 36 20
19 8 -10 14 -22 14 -25z m778 -52 c-2 -5 -20 9 -40 30 -33 35 -35 39 -14 35
13 -3 27 1 32 8 6 10 11 1 16 -25 5 -22 7 -43 6 -48z m-271 -94 c-1 -1 -14 -4
-29 -8 -27 -6 -28 -5 -28 34 l0 40 29 -32 c16 -18 29 -33 28 -34z m1433 18 c0
-24 -75 -72 -114 -72 -23 0 -25 4 -23 40 l1 40 68 0 c37 0 68 -4 68 -8z"/>
<path d="M884 1654 c3 -9 6 -29 6 -45 0 -19 5 -29 15 -29 8 0 15 5 15 12 0 7
12 26 28 42 l27 31 -27 -24 c-27 -24 -28 -24 -28 -4 0 12 -7 24 -16 27 -24 9
-27 8 -20 -10z"/>
<path d="M1040 1658 c-51 -15 -90 -46 -97 -79 -4 -22 -11 -29 -29 -29 -30 0
-31 -18 -1 -22 22 -3 22 -5 25 -175 l2 -173 85 0 85 0 -2 168 -2 167 -3 -162
-3 -163 -65 0 -65 0 0 180 c0 204 7 231 65 256 59 24 65 21 65 -44 l0 -58 35
4 c42 5 47 22 5 22 -28 0 -29 1 -32 57 -3 64 -9 68 -68 51z"/>
<path d="M1135 1651 c-9 -15 37 -43 50 -30 7 7 4 15 -9 25 -23 16 -33 18 -41
5z"/>
<path d="M2088 1623 c-56 -26 -78 -41 -78 -54 0 -12 -7 -19 -19 -19 -11 0 -23
-4 -26 -10 -3 -6 4 -10 18 -10 l24 0 5 -137 c3 -95 9 -145 19 -161 19 -30 72
-54 112 -50 l32 3 5 170 5 170 33 3 c17 2 32 7 32 12 0 5 -15 10 -32 12 -32 3
-33 4 -36 56 -2 28 -6 52 -10 52 -4 -1 -42 -17 -84 -37z m82 -213 l0 -220 -36
0 c-28 0 -44 8 -70 34 l-34 34 0 156 0 157 63 29 c34 16 65 29 70 29 4 1 7
-98 7 -219z"/>
<path d="M3353 1624 c-54 -26 -73 -40 -73 -54 0 -15 -7 -20 -25 -20 -14 0 -25
-4 -25 -10 0 -5 11 -10 25 -10 l25 0 0 -129 c0 -71 4 -141 10 -155 13 -36 67
-66 118 -66 l42 0 0 175 0 175 35 0 c19 0 35 5 35 10 0 6 -16 10 -35 10 l-35
0 0 55 c0 38 -4 55 -12 54 -7 0 -46 -16 -85 -35z m67 -36 c1 -24 3 -95 5 -158
3 -63 2 -143 -1 -177 -6 -58 -8 -63 -31 -63 -36 0 -78 25 -91 55 -8 16 -12 81
-12 178 l0 152 58 27 c31 14 60 26 65 27 4 1 7 -18 7 -41z"/>
<path d="M697 1633 c-4 -3 -7 -107 -7 -230 l0 -223 85 0 85 0 0 230 0 230 -78
0 c-43 0 -82 -3 -85 -7z m153 -233 l0 -210 -60 0 -60 0 0 210 0 210 60 0 60 0
0 -210z"/>
<path d="M1976 1595 c-3 -8 -1 -15 4 -15 6 0 10 7 10 15 0 8 -2 15 -4 15 -2 0
-6 -7 -10 -15z"/>
<path d="M2996 1588 c-3 -7 -7 -28 -10 -46 -5 -31 -3 -35 24 -45 25 -9 30 -17
30 -44 0 -44 -25 -43 -40 1 -10 31 -89 116 -107 116 -3 0 12 -16 34 -35 23
-19 49 -55 59 -80 16 -38 23 -45 47 -45 26 0 27 2 27 55 0 55 0 55 -31 55 -31
0 -32 1 -26 40 5 38 1 54 -7 28z"/>
<path d="M1902 1568 c16 -10 45 -10 51 0 3 4 -10 7 -29 8 -21 0 -30 -3 -22 -8z"/>
<path d="M2490 1565 c0 -9 6 -12 15 -9 8 4 15 7 15 9 0 2 -7 5 -15 9 -9 3 -15
0 -15 -9z"/>
<path d="M2632 1564 c14 -15 21 -15 48 -4 17 7 29 15 26 17 -2 3 -14 -1 -26
-7 -16 -9 -25 -9 -33 -1 -6 6 -16 11 -21 11 -6 0 -3 -7 6 -16z"/>
<path d="M1682 1543 c-24 -24 -24 -25 -2 -8 42 33 44 35 37 35 -4 0 -19 -12
-35 -27z"/>
<path d="M1287 1546 c-45 -16 -67 -34 -67 -52 0 -17 26 -19 36 -3 12 20 95 51
120 45 17 -5 24 -2 24 9 0 19 -59 20 -113 1z"/>
<path d="M1430 1370 l0 -190 89 0 89 0 -4 88 c-10 217 -11 222 -29 242 -17 18
-100 50 -132 50 -10 0 -13 -39 -13 -190z m117 142 c32 -17 36 -36 42 -185 l6
-137 -67 0 -68 0 0 174 0 174 33 -7 c18 -5 42 -13 54 -19z"/>
<path d="M1732 1539 c-96 -48 -91 -113 18 -232 47 -52 70 -85 70 -102 0 -16 6
-25 15 -25 27 0 6 51 -44 108 -25 29 -58 69 -73 89 -43 56 -35 109 22 138 36
19 40 19 40 -1 0 -9 29 -46 63 -82 82 -86 97 -109 97 -150 0 -23 -8 -41 -27
-59 -23 -21 -24 -24 -6 -14 29 15 43 42 43 81 0 44 -13 66 -87 141 -43 44 -65
75 -67 94 -4 38 -12 39 -64 14z"/>
<path d="M1822 1550 c3 -10 61 -37 93 -43 22 -4 16 19 -8 31 -40 20 -90 27
-85 12z"/>
<path d="M2534 1541 c-53 -32 -61 -64 -9 -37 16 8 41 12 60 9 39 -6 57 13 30
34 -25 18 -44 16 -81 -6z m71 -11 c3 -5 -1 -10 -9 -10 -8 0 -18 5 -21 10 -3 6
1 10 9 10 8 0 18 -4 21 -10z"/>
<path d="M2705 1543 c-46 -24 -66 -45 -86 -88 -33 -72 -18 -158 38 -217 25
-26 79 -55 88 -46 8 8 7 362 -2 365 -4 1 -21 -5 -38 -14z m35 -178 c0 -182 2
-178 -63 -131 -29 21 -67 90 -67 122 0 45 25 101 60 136 67 67 70 61 70 -127z"/>
<path d="M2780 1550 c0 -5 8 -10 19 -10 32 0 42 -24 39 -92 -3 -60 -4 -63 -30
-66 -46 -5 -31 -22 20 -22 28 0 42 4 34 9 -9 5 -12 30 -10 87 l3 79 42 -39
c49 -44 77 -111 52 -127 -11 -7 -8 -9 10 -9 22 0 23 3 17 41 -9 54 -48 111
-95 137 -40 23 -101 30 -101 12z"/>
<path d="M3030 1550 c0 -5 11 -10 25 -10 30 0 37 -23 33 -101 -3 -51 -5 -54
-30 -57 -46 -5 -31 -22 20 -22 28 0 42 4 34 9 -9 5 -12 30 -10 87 l3 79 38
-35 c42 -39 72 -107 55 -127 -8 -10 -5 -13 11 -13 51 0 -1 128 -71 173 -41 27
-108 37 -108 17z"/>
<path d="M2300 1365 l0 -185 85 0 85 0 0 185 0 185 -85 0 -85 0 0 -185z m150
-5 l0 -171 -67 3 -68 3 -1 168 -2 167 69 0 69 0 0 -170z"/>
<path d="M3532 1515 c-7 -8 -22 -15 -32 -15 -19 0 -20 -7 -20 -107 l0 -106 21
19 c18 16 19 19 5 22 -13 3 -16 17 -16 76 0 70 0 72 30 83 17 6 30 18 30 27 0
19 -1 19 -18 1z"/>
<path d="M2780 1466 c0 -44 3 -56 16 -56 12 0 14 10 12 52 -4 74 -28 77 -28 4z"/>
<path d="M1290 1483 l-31 -28 70 0 c64 0 70 2 74 22 5 30 1 33 -45 33 -27 0
-46 -8 -68 -27z m100 -3 c0 -5 -14 -10 -31 -10 -17 0 -28 4 -24 10 3 6 17 10
31 10 13 0 24 -4 24 -10z"/>
<path d="M2238 1502 l-28 -3 0 -110 c0 -107 0 -109 19 -90 10 10 24 20 30 22
8 3 11 32 9 94 l-3 90 -27 -3z m20 -99 c-2 -50 -7 -78 -15 -81 -10 -3 -13 17
-13 77 0 66 3 81 15 81 13 0 15 -13 13 -77z"/>
<path d="M131 1345 c-77 -131 -92 -165 -72 -165 7 0 134 206 167 270 1 3 -1
12 -5 19 -6 9 -35 -32 -90 -124z"/>
<path d="M1239 1410 c-92 -49 -85 -175 12 -214 46 -19 75 -20 118 -5 41 14 42
37 1 31 l-30 -4 0 91 0 91 31 0 c20 0 29 4 27 13 -8 21 -117 20 -159 -3z m93
-91 c-2 -57 1 -95 8 -104 18 -21 -22 -28 -64 -11 -34 14 -76 66 -76 94 0 50
60 111 110 112 l25 0 -3 -91z"/>
<path d="M225 1395 c-8 -14 -22 -36 -30 -50 -8 -13 -15 -27 -15 -30 0 -3 27
-5 60 -5 33 0 60 2 60 5 0 10 -50 105 -55 105 -2 0 -11 -11 -20 -25z m49 -51
c9 -23 8 -24 -19 -24 -23 0 -24 2 -13 20 15 24 24 25 32 4z"/>
<path d="M1366 1373 c-3 -4 -6 -33 -6 -65 0 -51 2 -59 18 -56 23 4 31 112 8
121 -8 3 -17 3 -20 0z"/>
<path d="M2787 1333 c-4 -3 -7 -28 -7 -55 0 -36 4 -48 15 -48 32 0 83 29 108
61 24 30 25 35 9 41 -22 9 -117 10 -125 1z m96 -38 c-19 -26 -72 -57 -85 -49
-10 6 -11 58 -1 67 3 4 28 7 55 7 l49 0 -18 -25z"/>
<path d="M2908 1260 c-26 -27 -49 -41 -79 -47 -56 -11 -68 -37 -13 -28 55 10
121 51 139 85 23 44 -1 39 -47 -10z"/>
<path d="M3178 1279 c-17 -26 -72 -60 -111 -68 -17 -4 -32 -12 -35 -19 -6 -20
64 -5 115 25 47 26 86 83 58 83 -8 0 -20 -9 -27 -21z"/>
<path d="M2233 1257 c-13 -18 -23 -40 -23 -48 1 -19 60 47 60 66 0 24 -13 17
-37 -18z"/>
<path d="M3498 1257 c-29 -37 -36 -61 -16 -55 20 7 50 54 46 73 -2 15 -8 12
-30 -18z"/>
<path d="M1670 1236 c0 -20 19 -32 69 -46 27 -7 47 -8 53 -2 6 6 -8 14 -36 22
-25 7 -51 19 -57 26 -15 18 -29 18 -29 0z"/>
<path d="M1668 951 c-30 -27 -33 -33 -33 -94 0 -57 4 -71 32 -111 l32 -45 -35
-30 c-19 -17 -34 -33 -34 -36 0 -15 30 -1 70 34 l44 38 -26 31 c-62 74 -72
163 -23 216 33 35 13 33 -27 -3z"/>
<path d="M1735 961 c-30 -13 -44 -33 -50 -72 l-5 -34 11 30 c17 44 28 55 58
55 69 0 135 -79 146 -174 4 -33 11 -70 15 -81 20 -53 90 -31 90 28 0 63 39 91
93 66 l24 -11 -28 -51 c-16 -29 -36 -72 -44 -97 -17 -49 -41 -83 -66 -92 -20
-8 -33 -77 -17 -95 13 -17 15 -15 -55 -37 -64 -19 -67 -36 -6 -36 56 0 89 34
89 93 0 46 21 89 34 69 11 -18 26 -14 19 3 -3 9 1 23 9 33 8 9 23 40 33 67 10
28 33 74 51 102 l34 53 -30 15 c-72 37 -139 8 -149 -66 -8 -62 -35 -65 -50 -5
-6 25 -11 57 -11 72 0 95 -121 197 -195 165z"/>
<path d="M1396 853 c-8 -16 -44 -62 -80 -103 -85 -98 -117 -157 -123 -228 -3
-45 0 -64 16 -89 28 -45 74 -66 128 -60 37 4 43 2 43 -15 0 -27 -24 -81 -43
-97 -21 -17 -22 -47 -1 -55 26 -10 192 -7 199 4 4 6 -28 10 -89 10 -94 0 -110
6 -82 30 17 14 42 79 51 133 l6 38 -30 -15 c-73 -38 -153 -1 -171 79 -17 73
16 142 124 265 71 81 101 130 81 130 -8 0 -21 -12 -29 -27z"/>
<path d="M2230 837 c-55 -20 -75 -33 -59 -39 8 -2 37 8 64 24 53 29 52 35 -5
15z"/>
<path d="M1370 753 c-40 -47 -85 -106 -100 -132 -31 -51 -46 -101 -30 -101 5
0 10 11 10 24 0 13 15 47 34 75 46 68 137 172 148 169 4 -2 40 -41 78 -88 64
-77 69 -86 54 -97 -10 -7 -34 -16 -53 -19 -63 -11 -64 -20 -15 -86 47 -65 51
-74 32 -81 -7 -3 2 -6 20 -6 20 -1 32 4 32 12 0 17 -51 98 -73 116 -26 21 -21
28 32 41 27 6 57 17 66 24 18 13 10 24 -121 184 l-41 51 -73 -86z"/>
<path d="M1770 790 c-17 -22 -29 -44 -25 -50 9 -15 20 -6 54 45 39 58 16 61
-29 5z"/>
<path d="M1978 812 c-28 -17 -34 -39 -19 -77 7 -17 8 -15 14 11 3 16 18 42 33
57 30 31 14 36 -28 9z"/>
<path d="M2261 814 c-43 -18 -62 -34 -56 -45 3 -4 15 1 25 11 29 29 90 27 118
-3 26 -28 28 -64 5 -112 -22 -47 -10 -58 63 -56 65 1 89 -13 99 -59 7 -33 -11
-74 -47 -106 -54 -50 -181 -91 -197 -65 -6 9 -11 8 -21 -4 -11 -13 -6 -15 38
-15 64 0 163 31 207 65 69 52 87 140 39 186 -21 20 -36 24 -82 24 -31 0 -59 2
-61 5 -3 3 4 26 14 52 15 41 16 52 5 78 -23 55 -84 73 -149 44z"/>
<path d="M1790 740 c-12 -23 -6 -40 16 -40 9 0 14 11 14 30 0 35 -14 39 -30
10z"/>
<path d="M2167 742 c-8 -9 -29 -46 -46 -82 -31 -65 -40 -110 -21 -110 5 0 7 7
4 15 -8 19 53 148 66 140 14 -9 32 -83 25 -105 -3 -11 -18 -29 -32 -40 -23
-18 -24 -20 -6 -20 33 0 72 38 79 76 4 23 1 50 -10 79 -22 57 -38 70 -59 47z"/>
<path d="M1565 720 c10 -11 20 -20 23 -20 3 0 -3 9 -13 20 -10 11 -20 20 -23
20 -3 0 3 -9 13 -20z"/>
<path d="M2423 680 c-10 -28 -10 -30 10 -29 12 0 16 3 10 6 -8 3 -11 14 -7 29
9 34 1 30 -13 -6z"/>
<path d="M1701 650 c-66 -60 -64 -75 3 -20 26 22 52 37 58 34 5 -3 -4 -15 -21
-25 -68 -41 -68 -156 1 -251 11 -15 5 -24 -45 -69 -40 -36 -57 -58 -57 -75 0
-22 9 -16 78 53 l77 78 -31 47 c-60 89 -52 180 20 215 39 18 47 38 19 46 -10
2 -25 7 -33 10 -9 4 -36 -13 -69 -43z"/>
<path d="M1840 656 c0 -2 7 -7 16 -10 8 -3 12 -2 9 4 -6 10 -25 14 -25 6z"/>
<path d="M1776 608 c-15 -14 -28 -38 -31 -58 l-5 -35 12 32 c13 32 35 61 41
52 1 -2 16 -32 32 -67 16 -35 35 -68 42 -74 21 -17 15 -28 -19 -43 -29 -12
-35 -11 -53 3 -15 12 -15 11 2 -8 l23 -24 52 18 c29 11 54 20 56 22 2 1 -12
26 -32 55 -20 30 -43 75 -52 101 -17 54 -31 58 -68 26z"/>
<path d="M1878 621 c-17 -4 -25 -10 -20 -17 8 -14 52 0 52 16 0 5 -1 9 -2 9
-2 -1 -15 -4 -30 -8z"/>
<path d="M2243 581 c-16 -44 -71 -68 -124 -54 -21 6 -42 7 -44 3 -5 -8 79 -90
92 -90 4 0 -8 13 -27 30 l-35 29 28 1 c64 1 134 54 125 96 -2 11 -7 6 -15 -15z"/>
<path d="M1573 572 c-24 -9 -43 -19 -43 -23 0 -4 9 -17 21 -30 l20 -24 -11 23
c-14 28 -12 31 21 34 22 3 24 0 24 -42 0 -31 -4 -44 -13 -42 -10 2 -10 -2 -2
-18 16 -29 29 -25 46 17 18 41 11 124 -9 122 -7 -1 -31 -9 -54 -17z"/>
<path d="M1666 496 c-4 -18 -15 -45 -26 -59 -11 -14 -19 -36 -19 -49 1 -20 2
-21 6 -3 3 11 14 31 24 43 18 24 36 88 26 98 -2 3 -8 -11 -11 -30z"/>
<path d="M2575 503 c-12 -48 -53 -91 -118 -123 -50 -25 -82 -32 -165 -39 -95
-9 -105 -12 -151 -45 -27 -20 -52 -36 -56 -36 -4 0 -4 16 -1 35 8 39 2 42 -66
26 -21 -5 -38 -7 -38 -5 0 3 11 31 25 64 26 61 32 105 16 114 -5 3 -11 -20
-13 -51 -4 -46 -10 -61 -32 -80 -30 -25 -92 -31 -127 -12 -15 8 -27 6 -54 -11
-38 -23 -116 -106 -142 -151 -10 -16 -21 -29 -25 -29 -4 0 -8 29 -8 64 0 36
-5 87 -12 115 l-11 51 -41 0 c-23 0 -52 7 -64 16 -28 19 -30 17 -21 -21 4 -16
7 -25 8 -20 0 6 18 9 42 7 50 -5 58 -22 67 -142 6 -75 9 -85 27 -88 14 -2 30
12 54 48 19 28 56 71 82 95 l47 44 69 -6 c37 -3 74 -12 81 -20 8 -8 23 -11 33
-8 10 3 28 8 39 11 17 4 20 1 20 -24 0 -48 40 -48 103 -1 45 34 58 39 107 39
63 0 166 23 213 46 48 24 105 83 118 122 6 18 9 35 6 38 -2 3 -8 -8 -12 -23z"/>
<path d="M2060 478 c1 -18 39 -86 40 -71 0 8 9 7 30 -5 34 -20 34 -34 -1 -43
-21 -6 -20 -7 9 -8 29 -1 92 22 92 34 0 3 -17 12 -37 20 -20 9 -56 31 -79 50
-46 38 -54 41 -54 23z"/>
<path d="M1265 440 c10 -11 20 -20 23 -20 3 0 -3 9 -13 20 -10 11 -20 20 -23
20 -3 0 3 -9 13 -20z"/>
<path d="M1361 434 c-26 -19 -30 -24 -15 -24 22 0 64 27 64 41 0 14 -11 10
-49 -17z"/>
<path d="M2031 389 c-7 -23 -11 -42 -9 -44 8 -9 58 9 58 21 0 18 -22 64 -30
64 -4 0 -12 -18 -19 -41z"/>
<path d="M2238 413 c6 -2 18 -2 25 0 6 3 1 5 -13 5 -14 0 -19 -2 -12 -5z"/>
<path d="M1435 375 c-21 -89 -26 -105 -35 -110 -23 -14 -6 -25 40 -25 54 0 56
1 38 33 -7 12 -17 47 -24 77 -11 52 -12 53 -19 25z m15 -117 c0 -5 -9 -8 -20
-8 -18 0 -19 3 -9 21 9 17 13 19 20 8 5 -8 9 -17 9 -21z"/>
<path d="M2110 314 c0 -14 3 -14 15 -4 8 7 15 14 15 16 0 2 -7 4 -15 4 -8 0
-15 -7 -15 -16z"/>
<path d="M1517 249 c7 -7 15 -10 18 -7 3 3 -2 9 -12 12 -14 6 -15 5 -6 -5z"/>
</g>
</svg>
